<svg id="my-svg" width="100%" xmlns="http://www.w3.org/2000/svg" xmlns:xlink="http://www.w3.org/1999/xlink" class="flowchart" style="max-width: 849.617px; background-color: rgb(255, 255, 255);" viewBox="0 0 849.6171875 2581.75" role="graphics-document document" aria-roledescription="flowchart-v2"><style>#my-svg{font-family:Inter,ui-sans-serif,system-ui,-apple-system,Segoe UI,Roboto,sans-serif;font-size:16px;fill:#333;}@keyframes edge-animation-frame{from{stroke-dashoffset:0;}}@keyframes dash{to{stroke-dashoffset:0;}}#my-svg .edge-animation-slow{stroke-dasharray:9,5!important;stroke-dashoffset:900;animation:dash 50s linear infinite;stroke-linecap:round;}#my-svg .edge-animation-fast{stroke-dasharray:9,5!important;stroke-dashoffset:900;animation:dash 20s linear infinite;stroke-linecap:round;}#my-svg .error-icon{fill:#552222;}#my-svg .error-text{fill:#552222;stroke:#552222;}#my-svg .edge-thickness-normal{stroke-width:1px;}#my-svg .edge-thickness-thick{stroke-width:3.5px;}#my-svg .edge-pattern-solid{stroke-dasharray:0;}#my-svg .edge-thickness-invisible{stroke-width:0;fill:none;}#my-svg .edge-pattern-dashed{stroke-dasharray:3;}#my-svg .edge-pattern-dotted{stroke-dasharray:2;}#my-svg .marker{fill:#475569;stroke:#475569;}#my-svg .marker.cross{stroke:#475569;}#my-svg svg{font-family:Inter,ui-sans-serif,system-ui,-apple-system,Segoe UI,Roboto,sans-serif;font-size:16px;}#my-svg p{margin:0;}#my-svg .label{font-family:Inter,ui-sans-serif,system-ui,-apple-system,Segoe UI,Roboto,sans-serif;color:#333;}#my-svg .cluster-label text{fill:#333;}#my-svg .cluster-label span{color:#333;}#my-svg .cluster-label span p{background-color:transparent;}#my-svg .label text,#my-svg span{fill:#333;color:#333;}#my-svg .node rect,#my-svg .node circle,#my-svg .node ellipse,#my-svg .node polygon,#my-svg .node path{fill:#eef2ff;stroke:#9370DB;stroke-width:1px;}#my-svg .rough-node .label text,#my-svg .node .label text,#my-svg .image-shape .label,#my-svg .icon-shape .label{text-anchor:middle;}#my-svg .node .katex path{fill:#000;stroke:#000;stroke-width:1px;}#my-svg .rough-node .label,#my-svg .node .label,#my-svg .image-shape .label,#my-svg .icon-shape .label{text-align:center;}#my-svg .node.clickable{cursor:pointer;}#my-svg .root .anchor path{fill:#475569!important;stroke-width:0;stroke:#475569;}#my-svg .arrowheadPath{fill:#333333;}#my-svg .edgePath .path{stroke:#475569;stroke-width:1px;}#my-svg .flowchart-link{stroke:#475569;fill:none;}#my-svg .edgeLabel{background-color:rgba(232,232,232, 0.8);text-align:center;}#my-svg .edgeLabel p{background-color:rgba(232,232,232, 0.8);}#my-svg .edgeLabel rect{opacity:0.5;background-color:rgba(232,232,232, 0.8);fill:rgba(232,232,232, 0.8);}#my-svg .labelBkg{background-color:rgba(232, 232, 232, 0.5);}#my-svg .cluster rect{fill:#f8fafc;stroke:#aaaa33;stroke-width:1px;}#my-svg .cluster text{fill:#333;}#my-svg .cluster span{color:#333;}#my-svg div.mermaidTooltip{position:absolute;text-align:center;max-width:200px;padding:2px;font-family:Inter,ui-sans-serif,system-ui,-apple-system,Segoe UI,Roboto,sans-serif;font-size:12px;background:#ffffff;border:1px solid #aaaa33;border-radius:2px;pointer-events:none;z-index:100;}#my-svg .flowchartTitleText{text-anchor:middle;font-size:18px;fill:#333;}#my-svg rect.text{fill:none;stroke-width:0;}#my-svg .icon-shape,#my-svg .image-shape{background-color:rgba(232,232,232, 0.8);text-align:center;}#my-svg .icon-shape p,#my-svg .image-shape p{background-color:rgba(232,232,232, 0.8);padding:2px;}#my-svg .icon-shape .label rect,#my-svg .image-shape .label rect{opacity:0.5;background-color:rgba(232,232,232, 0.8);fill:rgba(232,232,232, 0.8);}#my-svg .label-icon{display:inline-block;height:1em;overflow:visible;vertical-align:-0.125em;}#my-svg .node .label-icon path{fill:currentColor;stroke:revert;stroke-width:revert;}#my-svg .node .neo-node{stroke:#9370DB;}#my-svg [data-look="neo"].node rect,#my-svg [data-look="neo"].cluster rect,#my-svg [data-look="neo"].node polygon{stroke:#9370DB;filter:drop-shadow(1px 2px 2px rgba(185, 185, 185, 1));}#my-svg [data-look="neo"].node path{stroke:#9370DB;stroke-width:1px;}#my-svg [data-look="neo"].node .outer-path{filter:drop-shadow(1px 2px 2px rgba(185, 185, 185, 1));}#my-svg [data-look="neo"].node .neo-line path{stroke:#9370DB;filter:none;}#my-svg [data-look="neo"].node circle{stroke:#9370DB;filter:drop-shadow(1px 2px 2px rgba(185, 185, 185, 1));}#my-svg [data-look="neo"].node circle .state-start{fill:#000000;}#my-svg [data-look="neo"].icon-shape .icon{fill:#9370DB;filter:drop-shadow(1px 2px 2px rgba(185, 185, 185, 1));}#my-svg [data-look="neo"].icon-shape .icon-neo path{stroke:#9370DB;filter:drop-shadow(1px 2px 2px rgba(185, 185, 185, 1));}#my-svg :root{--mermaid-font-family:"trebuchet ms",verdana,arial,sans-serif;}</style><g><marker id="my-svg_flowchart-v2-pointEnd" class="marker flowchart-v2" viewBox="0 0 10 10" refX="5" refY="5" markerUnits="userSpaceOnUse" markerWidth="8" markerHeight="8" orient="auto"><path d="M 0 0 L 10 5 L 0 10 z" class="arrowMarkerPath" style="stroke-width: 1; stroke-dasharray: 1, 0;"/></marker><marker id="my-svg_flowchart-v2-pointStart" class="marker flowchart-v2" viewBox="0 0 10 10" refX="4.5" refY="5" markerUnits="userSpaceOnUse" markerWidth="8" markerHeight="8" orient="auto"><path d="M 0 5 L 10 10 L 10 0 z" class="arrowMarkerPath" style="stroke-width: 1; stroke-dasharray: 1, 0;"/></marker><marker id="my-svg_flowchart-v2-pointEnd-margin" class="marker flowchart-v2" viewBox="0 0 11.5 14" refX="11.5" refY="7" markerUnits="userSpaceOnUse" markerWidth="10.5" markerHeight="14" orient="auto"><path d="M 0 0 L 11.5 7 L 0 14 z" class="arrowMarkerPath" style="stroke-width: 0; stroke-dasharray: 1, 0;"/></marker><marker id="my-svg_flowchart-v2-pointStart-margin" class="marker flowchart-v2" viewBox="0 0 11.5 14" refX="1" refY="7" markerUnits="userSpaceOnUse" markerWidth="11.5" markerHeight="14" orient="auto"><polygon points="0,7 11.5,14 11.5,0" class="arrowMarkerPath" style="stroke-width: 0; stroke-dasharray: 1, 0;"/></marker><marker id="my-svg_flowchart-v2-circleEnd" class="marker flowchart-v2" viewBox="0 0 10 10" refX="11" refY="5" markerUnits="userSpaceOnUse" markerWidth="11" markerHeight="11" orient="auto"><circle cx="5" cy="5" r="5" class="arrowMarkerPath" style="stroke-width: 1; stroke-dasharray: 1, 0;"/></marker><marker id="my-svg_flowchart-v2-circleStart" class="marker flowchart-v2" viewBox="0 0 10 10" refX="-1" refY="5" markerUnits="userSpaceOnUse" markerWidth="11" markerHeight="11" orient="auto"><circle cx="5" cy="5" r="5" class="arrowMarkerPath" style="stroke-width: 1; stroke-dasharray: 1, 0;"/></marker><marker id="my-svg_flowchart-v2-circleEnd-margin" class="marker flowchart-v2" viewBox="0 0 10 10" refY="5" refX="12.25" markerUnits="userSpaceOnUse" markerWidth="14" markerHeight="14" orient="auto"><circle cx="5" cy="5" r="5" class="arrowMarkerPath" style="stroke-width: 0; stroke-dasharray: 1, 0;"/></marker><marker id="my-svg_flowchart-v2-circleStart-margin" class="marker flowchart-v2" viewBox="0 0 10 10" refX="-2" refY="5" markerUnits="userSpaceOnUse" markerWidth="14" markerHeight="14" orient="auto"><circle cx="5" cy="5" r="5" class="arrowMarkerPath" style="stroke-width: 0; stroke-dasharray: 1, 0;"/></marker><marker id="my-svg_flowchart-v2-crossEnd" class="marker cross flowchart-v2" viewBox="0 0 11 11" refX="12" refY="5.2" markerUnits="userSpaceOnUse" markerWidth="11" markerHeight="11" orient="auto"><path d="M 1,1 l 9,9 M 10,1 l -9,9" class="arrowMarkerPath" style="stroke-width: 2; stroke-dasharray: 1, 0;"/></marker><marker id="my-svg_flowchart-v2-crossStart" class="marker cross flowchart-v2" viewBox="0 0 11 11" refX="-1" refY="5.2" markerUnits="userSpaceOnUse" markerWidth="11" markerHeight="11" orient="auto"><path d="M 1,1 l 9,9 M 10,1 l -9,9" class="arrowMarkerPath" style="stroke-width: 2; stroke-dasharray: 1, 0;"/></marker><marker id="my-svg_flowchart-v2-crossEnd-margin" class="marker cross flowchart-v2" viewBox="0 0 15 15" refX="17.7" refY="7.5" markerUnits="userSpaceOnUse" markerWidth="12" markerHeight="12" orient="auto"><path d="M 1,1 L 14,14 M 1,14 L 14,1" class="arrowMarkerPath" style="stroke-width: 2.5;"/></marker><marker id="my-svg_flowchart-v2-crossStart-margin" class="marker cross flowchart-v2" viewBox="0 0 15 15" refX="-3.5" refY="7.5" markerUnits="userSpaceOnUse" markerWidth="12" markerHeight="12" orient="auto"><path d="M 1,1 L 14,14 M 1,14 L 14,1" class="arrowMarkerPath" style="stroke-width: 2.5; stroke-dasharray: 1, 0;"/></marker><g class="root"><g class="clusters"/><g class="edgePaths"><path d="M444.242,52.5L444.159,56.583C444.076,60.667,443.909,68.833,443.826,76.417C443.742,84,443.742,91,443.742,94.5L443.742,98" id="my-svg-L_Start_Hyd_0" class="edge-thickness-normal edge-pattern-solid edge-thickness-normal edge-pattern-solid flowchart-link" style=";" data-edge="true" data-et="edge" data-id="L_Start_Hyd_0" data-points="W3sieCI6NDQ0LjI0MjE4NzUsInkiOjUyLjV9LHsieCI6NDQzLjc0MjE4NzUsInkiOjc3fSx7IngiOjQ0My43NDIxODc1LCJ5IjoxMDJ9XQ==" data-look="classic" marker-end="url(#my-svg_flowchart-v2-pointEnd)"/><path d="M443.742,166L443.742,170.167C443.742,174.333,443.742,182.667,443.742,190.333C443.742,198,443.742,205,443.742,208.5L443.742,212" id="my-svg-L_Hyd_Tok_0" class="edge-thickness-normal edge-pattern-solid edge-thickness-normal edge-pattern-solid flowchart-link" style=";" data-edge="true" data-et="edge" data-id="L_Hyd_Tok_0" data-points="W3sieCI6NDQzLjc0MjE4NzUsInkiOjE2Nn0seyJ4Ijo0NDMuNzQyMTg3NSwieSI6MTkxfSx7IngiOjQ0My43NDIxODc1LCJ5IjoyMTZ9XQ==" data-look="classic" marker-end="url(#my-svg_flowchart-v2-pointEnd)"/><path d="M407.905,394.491L401.805,406.63C395.706,418.77,383.507,443.049,377.408,460.689C371.309,478.328,371.309,489.328,371.309,494.828L371.309,500.328" id="my-svg-L_Tok_Me_0" class="edge-thickness-normal edge-pattern-solid edge-thickness-normal edge-pattern-solid flowchart-link" style=";" data-edge="true" data-et="edge" data-id="L_Tok_Me_0" data-points="W3sieCI6NDA3LjkwNDg3MzczNTMyNDQsInkiOjM5NC40OTA4MTEyMzUzMjQ0fSx7IngiOjM3MS4zMDg1OTM3NSwieSI6NDY3LjMyODEyNX0seyJ4IjozNzEuMzA4NTkzNzUsInkiOjUwNC4zMjgxMjV9XQ==" data-look="classic" marker-end="url(#my-svg_flowchart-v2-pointEnd)"/><path d="M331.135,568.328L325.904,572.495C320.674,576.661,310.212,584.995,304.981,592.661C299.75,600.328,299.75,607.328,299.75,610.828L299.75,614.328" id="my-svg-L_Me_MeOk_0" class="edge-thickness-normal edge-pattern-solid edge-thickness-normal edge-pattern-solid flowchart-link" style=";" data-edge="true" data-et="edge" data-id="L_Me_MeOk_0" data-points="W3sieCI6MzMxLjEzNTM0ODEzNTk2NDkzLCJ5Ijo1NjguMzI4MTI1fSx7IngiOjI5OS43NSwieSI6NTkzLjMyODEyNX0seyJ4IjoyOTkuNzUsInkiOjYxOC4zMjgxMjV9XQ==" data-look="classic" marker-end="url(#my-svg_flowchart-v2-pointEnd)"/><path d="M260.678,682.288L220.87,694.966C181.062,707.645,101.445,733.002,61.636,769.867C21.828,806.732,21.828,855.104,21.828,903.477C21.828,951.849,21.828,1000.221,21.828,1035.908C21.828,1071.594,21.828,1094.594,21.828,1115.594C21.828,1136.594,21.828,1155.594,21.828,1177.846C21.828,1200.099,21.828,1225.604,21.828,1253.109C21.828,1280.615,21.828,1310.12,21.828,1336.372C21.828,1362.625,21.828,1385.625,21.828,1406.625C21.828,1427.625,21.828,1446.625,21.828,1465.625C21.828,1484.625,21.828,1503.625,21.828,1522.625C21.828,1541.625,21.828,1560.625,21.828,1583.406C21.828,1606.188,21.828,1632.75,21.828,1661.313C21.828,1689.875,21.828,1720.438,21.828,1747.219C21.828,1774,21.828,1797,21.828,1818C21.828,1839,21.828,1858,21.828,1883.646C21.828,1909.292,21.828,1941.583,21.828,1975.875C21.828,2010.167,21.828,2046.458,21.828,2078.104C21.828,2109.75,21.828,2136.75,21.828,2161.75C21.828,2186.75,21.828,2209.75,21.828,2230.75C21.828,2251.75,21.828,2270.75,21.828,2289.75C21.828,2308.75,21.828,2327.75,21.828,2348.75C21.828,2369.75,21.828,2392.75,21.828,2415.75C21.828,2438.75,21.828,2461.75,28.791,2477.094C35.754,2492.439,49.68,2500.128,56.643,2503.972L63.606,2507.817" id="my-svg-L_MeOk_Auth_0" class="edge-thickness-normal edge-pattern-solid edge-thickness-normal edge-pattern-solid flowchart-link" style=";" data-edge="true" data-et="edge" data-id="L_MeOk_Auth_0" data-points="W3sieCI6MjYwLjY3ODM0NjMyOTczNzM0LCJ5Ijo2ODIuMjg3NzIxMzI5NzM3M30seyJ4IjoyMS44MjgxMjUsInkiOjc1OC4zNTkzNzV9LHsieCI6MjEuODI4MTI1LCJ5Ijo5MDMuNDc2NTYyNX0seyJ4IjoyMS44MjgxMjUsInkiOjEwNDguNTkzNzV9LHsieCI6MjEuODI4MTI1LCJ5IjoxMTE3LjU5Mzc1fSx7IngiOjIxLjgyODEyNSwieSI6MTE3NC41OTM3NX0seyJ4IjoyMS44MjgxMjUsInkiOjEyNTEuMTA5Mzc1fSx7IngiOjIxLjgyODEyNSwieSI6MTMzOS42MjV9LHsieCI6MjEuODI4MTI1LCJ5IjoxNDA4LjYyNX0seyJ4IjoyMS44MjgxMjUsInkiOjE0NjUuNjI1fSx7IngiOjIxLjgyODEyNSwieSI6MTUyMi42MjV9LHsieCI6MjEuODI4MTI1LCJ5IjoxNTc5LjYyNX0seyJ4IjoyMS44MjgxMjUsInkiOjE2NTkuMzEyNX0seyJ4IjoyMS44MjgxMjUsInkiOjE3NTF9LHsieCI6MjEuODI4MTI1LCJ5IjoxODIwfSx7IngiOjIxLjgyODEyNSwieSI6MTg3N30seyJ4IjoyMS44MjgxMjUsInkiOjE5NzMuODc1fSx7IngiOjIxLjgyODEyNSwieSI6MjA4Mi43NX0seyJ4IjoyMS44MjgxMjUsInkiOjIxNjMuNzV9LHsieCI6MjEuODI4MTI1LCJ5IjoyMjMyLjc1fSx7IngiOjIxLjgyODEyNSwieSI6MjI4OS43NX0seyJ4IjoyMS44MjgxMjUsInkiOjIzNDYuNzV9LHsieCI6MjEuODI4MTI1LCJ5IjoyNDE1Ljc1fSx7IngiOjIxLjgyODEyNSwieSI6MjQ4NC43NX0seyJ4Ijo2Ny4xMDgwNzI5MTY2NjY2NiwieSI6MjUwOS43NX1d" data-look="classic" marker-end="url(#my-svg_flowchart-v2-pointEnd)"/><path d="M333.941,687.169L357.356,699.034C380.772,710.899,427.603,734.629,451.018,751.994C474.434,769.359,474.434,780.359,474.434,785.859L474.434,791.359" id="my-svg-L_MeOk_Refresh_0" class="edge-thickness-normal edge-pattern-solid edge-thickness-normal edge-pattern-solid flowchart-link" style=";" data-edge="true" data-et="edge" data-id="L_MeOk_Refresh_0" data-points="W3sieCI6MzMzLjk0MDU4MjE0NTQwMTQsInkiOjY4Ny4xNjg3OTI4NTQ1OTg2fSx7IngiOjQ3NC40MzM1OTM3NSwieSI6NzU4LjM1OTM3NX0seyJ4Ijo0NzQuNDMzNTkzNzUsInkiOjc5NS4zNTkzNzV9XQ==" data-look="classic" marker-end="url(#my-svg_flowchart-v2-pointEnd)"/><path d="M415.377,952.537L396.106,968.547C376.835,984.556,338.292,1016.575,319.021,1038.084C299.75,1059.594,299.75,1070.594,299.75,1076.094L299.75,1081.594" id="my-svg-L_Refresh_Rfr_0" class="edge-thickness-normal edge-pattern-solid edge-thickness-normal edge-pattern-solid flowchart-link" style=";" data-edge="true" data-et="edge" data-id="L_Refresh_Rfr_0" data-points="W3sieCI6NDE1LjM3NzE0MzcxNjI1NzEsInkiOjk1Mi41MzcyOTk5NjYyNTd9LHsieCI6Mjk5Ljc1LCJ5IjoxMDQ4LjU5Mzc1fSx7IngiOjI5OS43NSwieSI6MTA4NS41OTM3NX1d" data-look="classic" marker-end="url(#my-svg_flowchart-v2-pointEnd)"/><path d="M299.75,1149.594L299.75,1153.76C299.75,1157.927,299.75,1166.26,299.75,1173.927C299.75,1181.594,299.75,1188.594,299.75,1192.094L299.75,1195.594" id="my-svg-L_Rfr_RfrOk_0" class="edge-thickness-normal edge-pattern-solid edge-thickness-normal edge-pattern-solid flowchart-link" style=";" data-edge="true" data-et="edge" data-id="L_Rfr_RfrOk_0" data-points="W3sieCI6Mjk5Ljc1LCJ5IjoxMTQ5LjU5Mzc1fSx7IngiOjI5OS43NSwieSI6MTE3NC41OTM3NX0seyJ4IjoyOTkuNzUsInkiOjExOTkuNTkzNzV9XQ==" data-look="classic" marker-end="url(#my-svg_flowchart-v2-pointEnd)"/><path d="M289.533,1292.408L287.586,1300.277C285.639,1308.147,281.745,1323.886,293.157,1337.653C304.568,1351.42,331.285,1363.215,344.643,1369.112L358.002,1375.01" id="my-svg-L_RfrOk_Store_0" class="edge-thickness-normal edge-pattern-solid edge-thickness-normal edge-pattern-solid flowchart-link" style=";" data-edge="true" data-et="edge" data-id="L_RfrOk_Store_0" data-points="W3sieCI6Mjg5LjUzMjg5ODQwMjY3NDYsInkiOjEyOTIuNDA3ODk4NDAyNjc0Nn0seyJ4IjoyNzcuODUxNTYyNSwieSI6MTMzOS42MjV9LHsieCI6MzYxLjY2MDgzNTU5NzgyNjEsInkiOjEzNzYuNjI1fV0=" data-look="classic" marker-end="url(#my-svg_flowchart-v2-pointEnd)"/><path d="M542.543,1377.571L564.619,1371.247C586.695,1364.922,630.848,1352.274,652.924,1331.197C675,1310.12,675,1280.615,675,1253.109C675,1225.604,675,1200.099,675,1177.846C675,1155.594,675,1136.594,675,1115.594C675,1094.594,675,1071.594,675,1035.908C675,1000.221,675,951.849,675,903.477C675,855.104,675,806.732,675,767.793C675,728.854,675,699.349,675,671.844C675,644.339,675,618.833,643.351,600.141C611.702,581.448,548.405,569.567,516.756,563.627L485.107,557.687" id="my-svg-L_Store_Me_0" class="edge-thickness-normal edge-pattern-solid edge-thickness-normal edge-pattern-solid flowchart-link" style=";" data-edge="true" data-et="edge" data-id="L_Store_Me_0" data-points="W3sieCI6NTQyLjU0Mjk2ODc1LCJ5IjoxMzc3LjU3MTEzOTI0OTc0NDZ9LHsieCI6Njc1LCJ5IjoxMzM5LjYyNX0seyJ4Ijo2NzUsInkiOjEyNTEuMTA5Mzc1fSx7IngiOjY3NSwieSI6MTE3NC41OTM3NX0seyJ4Ijo2NzUsInkiOjExMTcuNTkzNzV9LHsieCI6Njc1LCJ5IjoxMDQ4LjU5Mzc1fSx7IngiOjY3NSwieSI6OTAzLjQ3NjU2MjV9LHsieCI6Njc1LCJ5Ijo3NTguMzU5Mzc1fSx7IngiOjY3NSwieSI6NjY5Ljg0Mzc1fSx7IngiOjY3NSwieSI6NTkzLjMyODEyNX0seyJ4Ijo0ODEuMTc1NzgxMjUsInkiOjU1Ni45NDkxNTUyOTEzMzcxfV0=" data-look="classic" marker-end="url(#my-svg_flowchart-v2-pointEnd)"/><path d="M309.967,1292.408L311.914,1300.277C313.861,1308.147,317.755,1323.886,308.254,1337.618C298.754,1351.351,275.86,1363.076,264.413,1368.939L252.966,1374.802" id="my-svg-L_RfrOk_Clear_0" class="edge-thickness-normal edge-pattern-solid edge-thickness-normal edge-pattern-solid flowchart-link" style=";" data-edge="true" data-et="edge" data-id="L_RfrOk_Clear_0" data-points="W3sieCI6MzA5Ljk2NzEwMTU5NzMyNTQsInkiOjEyOTIuNDA3ODk4NDAyNjc0Nn0seyJ4IjozMjEuNjQ4NDM3NSwieSI6MTMzOS42MjV9LHsieCI6MjQ5LjQwNTg1MzcxMzc2ODEyLCJ5IjoxMzc2LjYyNX1d" data-look="classic" marker-end="url(#my-svg_flowchart-v2-pointEnd)"/><path d="M186.926,1440.625L186.926,1444.792C186.926,1448.958,186.926,1457.292,236.724,1468.337C286.523,1479.383,386.12,1493.14,435.919,1500.019L485.717,1506.898" id="my-svg-L_Clear_Login_0" class="edge-thickness-normal edge-pattern-solid edge-thickness-normal edge-pattern-solid flowchart-link" style=";" data-edge="true" data-et="edge" data-id="L_Clear_Login_0" data-points="W3sieCI6MTg2LjkyNTc4MTI1LCJ5IjoxNDQwLjYyNX0seyJ4IjoxODYuOTI1NzgxMjUsInkiOjE0NjUuNjI1fSx7IngiOjQ4OS42Nzk2ODc1LCJ5IjoxNTA3LjQ0NTQzMjIzNDkxNzd9XQ==" data-look="classic" marker-end="url(#my-svg_flowchart-v2-pointEnd)"/><path d="M522.006,964.022L533.081,978.117C544.156,992.212,566.307,1020.403,577.382,1045.998C588.457,1071.594,588.457,1094.594,588.457,1115.594C588.457,1136.594,588.457,1155.594,588.457,1177.846C588.457,1200.099,588.457,1225.604,588.457,1253.109C588.457,1280.615,588.457,1310.12,588.457,1336.372C588.457,1362.625,588.457,1385.625,588.457,1406.625C588.457,1427.625,588.457,1446.625,589.142,1459.637C589.827,1472.65,591.196,1479.674,591.881,1483.187L592.566,1486.699" id="my-svg-L_Refresh_Login_0" class="edge-thickness-normal edge-pattern-solid edge-thickness-normal edge-pattern-solid flowchart-link" style=";" data-edge="true" data-et="edge" data-id="L_Refresh_Login_0" data-points="W3sieCI6NTIyLjAwNTgwODE0NzQyMjQsInkiOjk2NC4wMjE1MzU2MDI1Nzc2fSx7IngiOjU4OC40NTcwMzEyNSwieSI6MTA0OC41OTM3NX0seyJ4Ijo1ODguNDU3MDMxMjUsInkiOjExMTcuNTkzNzV9LHsieCI6NTg4LjQ1NzAzMTI1LCJ5IjoxMTc0LjU5Mzc1fSx7IngiOjU4OC40NTcwMzEyNSwieSI6MTI1MS4xMDkzNzV9LHsieCI6NTg4LjQ1NzAzMTI1LCJ5IjoxMzM5LjYyNX0seyJ4Ijo1ODguNDU3MDMxMjUsInkiOjE0MDguNjI1fSx7IngiOjU4OC40NTcwMzEyNSwieSI6MTQ2NS42MjV9LHsieCI6NTkzLjMzMTI3NzQxMjI4MDcsInkiOjE0OTAuNjI1fV0=" data-look="classic" marker-end="url(#my-svg_flowchart-v2-pointEnd)"/><path d="M517.527,356.543L558.342,375.007C599.157,393.472,680.788,430.4,721.603,460.364C762.418,490.328,762.418,513.328,762.418,534.328C762.418,555.328,762.418,574.328,762.418,596.581C762.418,618.833,762.418,644.339,762.418,671.844C762.418,699.349,762.418,728.854,762.418,767.793C762.418,806.732,762.418,855.104,762.418,903.477C762.418,951.849,762.418,1000.221,762.418,1035.908C762.418,1071.594,762.418,1094.594,762.418,1115.594C762.418,1136.594,762.418,1155.594,762.418,1177.846C762.418,1200.099,762.418,1225.604,762.418,1253.109C762.418,1280.615,762.418,1310.12,762.418,1336.372C762.418,1362.625,762.418,1385.625,762.418,1406.625C762.418,1427.625,762.418,1446.625,751.143,1460.071C739.868,1473.518,717.319,1481.411,706.044,1485.357L694.769,1489.304" id="my-svg-L_Tok_Login_0" class="edge-thickness-normal edge-pattern-solid edge-thickness-normal edge-pattern-solid flowchart-link" style=";" data-edge="true" data-et="edge" data-id="L_Tok_Login_0" data-points="W3sieCI6NTE3LjUyNzA4Njk2NDE4MTgsInkiOjM1Ni41NDMyMjU1MzU4MTgzfSx7IngiOjc2Mi40MTc5Njg3NSwieSI6NDY3LjMyODEyNX0seyJ4Ijo3NjIuNDE3OTY4NzUsInkiOjUzNi4zMjgxMjV9LHsieCI6NzYyLjQxNzk2ODc1LCJ5Ijo1OTMuMzI4MTI1fSx7IngiOjc2Mi40MTc5Njg3NSwieSI6NjY5Ljg0Mzc1fSx7IngiOjc2Mi40MTc5Njg3NSwieSI6NzU4LjM1OTM3NX0seyJ4Ijo3NjIuNDE3OTY4NzUsInkiOjkwMy40NzY1NjI1fSx7IngiOjc2Mi40MTc5Njg3NSwieSI6MTA0OC41OTM3NX0seyJ4Ijo3NjIuNDE3OTY4NzUsInkiOjExMTcuNTkzNzV9LHsieCI6NzYyLjQxNzk2ODc1LCJ5IjoxMTc0LjU5Mzc1fSx7IngiOjc2Mi40MTc5Njg3NSwieSI6MTI1MS4xMDkzNzV9LHsieCI6NzYyLjQxNzk2ODc1LCJ5IjoxMzM5LjYyNX0seyJ4Ijo3NjIuNDE3OTY4NzUsInkiOjE0MDguNjI1fSx7IngiOjc2Mi40MTc5Njg3NSwieSI6MTQ2NS42MjV9LHsieCI6NjkwLjk5MzU1ODExNDAzNTEsInkiOjE0OTAuNjI1fV0=" data-look="classic" marker-end="url(#my-svg_flowchart-v2-pointEnd)"/><path d="M599.57,1554.625L599.57,1558.792C599.57,1562.958,599.57,1571.292,599.57,1578.958C599.57,1586.625,599.57,1593.625,599.57,1597.125L599.57,1600.625" id="my-svg-L_Login_Mode_0" class="edge-thickness-normal edge-pattern-solid edge-thickness-normal edge-pattern-solid flowchart-link" style=";" data-edge="true" data-et="edge" data-id="L_Login_Mode_0" data-points="W3sieCI6NTk5LjU3MDMxMjUsInkiOjE1NTQuNjI1fSx7IngiOjU5OS41NzAzMTI1LCJ5IjoxNTc5LjYyNX0seyJ4Ijo1OTkuNTcwMzEyNSwieSI6MTYwNC42MjV9XQ==" data-look="classic" marker-end="url(#my-svg_flowchart-v2-pointEnd)"/><path d="M553.723,1668.153L482.112,1681.961C410.502,1695.768,267.28,1723.384,195.669,1748.692C124.059,1774,124.059,1797,124.059,1818C124.059,1839,124.059,1858,124.059,1883.646C124.059,1909.292,124.059,1941.583,124.059,1975.875C124.059,2010.167,124.059,2046.458,124.059,2078.104C124.059,2109.75,124.059,2136.75,124.059,2161.75C124.059,2186.75,124.059,2209.75,170.162,2227.784C216.266,2245.819,308.473,2258.887,354.577,2265.422L400.68,2271.956" id="my-svg-L_Mode_POSTLog_0" class="edge-thickness-normal edge-pattern-solid edge-thickness-normal edge-pattern-solid flowchart-link" style=";" data-edge="true" data-et="edge" data-id="L_Mode_POSTLog_0" data-points="W3sieCI6NTUzLjcyMzAyMjQxMzAxODMsInkiOjE2NjguMTUyNzA5OTEzMDE4M30seyJ4IjoxMjQuMDU4NTkzNzUsInkiOjE3NTF9LHsieCI6MTI0LjA1ODU5Mzc1LCJ5IjoxODIwfSx7IngiOjEyNC4wNTg1OTM3NSwieSI6MTg3N30seyJ4IjoxMjQuMDU4NTkzNzUsInkiOjE5NzMuODc1fSx7IngiOjEyNC4wNTg1OTM3NSwieSI6MjA4Mi43NX0seyJ4IjoxMjQuMDU4NTkzNzUsInkiOjIxNjMuNzV9LHsieCI6MTI0LjA1ODU5Mzc1LCJ5IjoyMjMyLjc1fSx7IngiOjQwNC42NDA2MjUsInkiOjIyNzIuNTE3NDAzMjM0NDIzfV0=" data-look="classic" marker-end="url(#my-svg_flowchart-v2-pointEnd)"/><path d="M608.898,1704.672L610.486,1712.393C612.074,1720.115,615.25,1735.557,616.838,1748.779C618.426,1762,618.426,1773,618.426,1778.5L618.426,1784" id="my-svg-L_Mode_POSTReg_0" class="edge-thickness-normal edge-pattern-solid edge-thickness-normal edge-pattern-solid flowchart-link" style=";" data-edge="true" data-et="edge" data-id="L_Mode_POSTReg_0" data-points="W3sieCI6NjA4Ljg5ODQzNTg0MzU4MTEsInkiOjE3MDQuNjcxODc2NjU2NDE5fSx7IngiOjYxOC40MjU3ODEyNSwieSI6MTc1MX0seyJ4Ijo2MTguNDI1NzgxMjUsInkiOjE3ODh9XQ==" data-look="classic" marker-end="url(#my-svg_flowchart-v2-pointEnd)"/><path d="M618.426,1852L618.426,1856.167C618.426,1860.333,618.426,1868.667,618.426,1876.333C618.426,1884,618.426,1891,618.426,1894.5L618.426,1898" id="my-svg-L_POSTReg_First_0" class="edge-thickness-normal edge-pattern-solid edge-thickness-normal edge-pattern-solid flowchart-link" style=";" data-edge="true" data-et="edge" data-id="L_POSTReg_First_0" data-points="W3sieCI6NjE4LjQyNTc4MTI1LCJ5IjoxODUyfSx7IngiOjYxOC40MjU3ODEyNSwieSI6MTg3N30seyJ4Ijo2MTguNDI1NzgxMjUsInkiOjE5MDJ9XQ==" data-look="classic" marker-end="url(#my-svg_flowchart-v2-pointEnd)"/><path d="M564.824,1992.148L520.53,2007.249C476.236,2022.349,387.647,2052.549,343.353,2073.15C299.059,2093.75,299.059,2104.75,299.059,2110.25L299.059,2115.75" id="my-svg-L_First_Promote_0" class="edge-thickness-normal edge-pattern-solid edge-thickness-normal edge-pattern-solid flowchart-link" style=";" data-edge="true" data-et="edge" data-id="L_First_Promote_0" data-points="W3sieCI6NTY0LjgyNDA2NDExMDUzMDksInkiOjE5OTIuMTQ4MjgyODYwNTMwOH0seyJ4IjoyOTkuMDU4NTkzNzUsInkiOjIwODIuNzV9LHsieCI6Mjk5LjA1ODU5Mzc1LCJ5IjoyMTE5Ljc1fV0=" data-look="classic" marker-end="url(#my-svg_flowchart-v2-pointEnd)"/><path d="M658.16,2006.016L673.971,2018.805C689.781,2031.594,721.402,2057.172,737.213,2077.461C753.023,2097.75,753.023,2112.75,753.023,2120.25L753.023,2127.75" id="my-svg-L_First_Reg_0" class="edge-thickness-normal edge-pattern-solid edge-thickness-normal edge-pattern-solid flowchart-link" style=";" data-edge="true" data-et="edge" data-id="L_First_Reg_0" data-points="W3sieCI6NjU4LjE2MDA0NDE5MzQxMzIsInkiOjIwMDYuMDE1NzM3MDU2NTg2OX0seyJ4Ijo3NTMuMDIzNDM3NSwieSI6MjA4Mi43NX0seyJ4Ijo3NTMuMDIzNDM3NSwieSI6MjEzMS43NX1d" data-look="classic" marker-end="url(#my-svg_flowchart-v2-pointEnd)"/><path d="M299.059,2207.75L299.059,2211.917C299.059,2216.083,299.059,2224.417,316.009,2232.836C332.959,2241.256,366.86,2249.762,383.811,2254.016L400.761,2258.269" id="my-svg-L_Promote_POSTLog_0" class="edge-thickness-normal edge-pattern-solid edge-thickness-normal edge-pattern-solid flowchart-link" style=";" data-edge="true" data-et="edge" data-id="L_Promote_POSTLog_0" data-points="W3sieCI6Mjk5LjA1ODU5Mzc1LCJ5IjoyMjA3Ljc1fSx7IngiOjI5OS4wNTg1OTM3NSwieSI6MjIzMi43NX0seyJ4Ijo0MDQuNjQwNjI1LCJ5IjoyMjU5LjI0MjE4NDY3ODg3NX1d" data-look="classic" marker-end="url(#my-svg_flowchart-v2-pointEnd)"/><path d="M753.023,2195.75L753.023,2201.917C753.023,2208.083,753.023,2220.417,736.135,2230.828C719.246,2241.239,685.469,2249.728,668.58,2253.973L651.692,2258.217" id="my-svg-L_Reg_POSTLog_0" class="edge-thickness-normal edge-pattern-solid edge-thickness-normal edge-pattern-solid flowchart-link" style=";" data-edge="true" data-et="edge" data-id="L_Reg_POSTLog_0" data-points="W3sieCI6NzUzLjAyMzQzNzUsInkiOjIxOTUuNzV9LHsieCI6NzUzLjAyMzQzNzUsInkiOjIyMzIuNzV9LHsieCI6NjQ3LjgxMjUsInkiOjIyNTkuMTkyMjY2NjIwNzM3fV0=" data-look="classic" marker-end="url(#my-svg_flowchart-v2-pointEnd)"/><path d="M526.227,2321.75L526.227,2325.917C526.227,2330.083,526.227,2338.417,526.227,2346.083C526.227,2353.75,526.227,2360.75,526.227,2364.25L526.227,2367.75" id="my-svg-L_POSTLog_Issue_0" class="edge-thickness-normal edge-pattern-solid edge-thickness-normal edge-pattern-solid flowchart-link" style=";" data-edge="true" data-et="edge" data-id="L_POSTLog_Issue_0" data-points="W3sieCI6NTI2LjIyNjU2MjUsInkiOjIzMjEuNzV9LHsieCI6NTI2LjIyNjU2MjUsInkiOjIzNDYuNzV9LHsieCI6NTI2LjIyNjU2MjUsInkiOjIzNzEuNzV9XQ==" data-look="classic" marker-end="url(#my-svg_flowchart-v2-pointEnd)"/><path d="M526.227,2459.75L526.227,2463.917C526.227,2468.083,526.227,2476.417,477.374,2487.525C428.522,2498.633,330.817,2512.515,281.965,2519.457L233.113,2526.398" id="my-svg-L_Issue_Auth_0" class="edge-thickness-normal edge-pattern-solid edge-thickness-normal edge-pattern-solid flowchart-link" style=";" data-edge="true" data-et="edge" data-id="L_Issue_Auth_0" data-points="W3sieCI6NTI2LjIyNjU2MjUsInkiOjI0NTkuNzV9LHsieCI6NTI2LjIyNjU2MjUsInkiOjI0ODQuNzV9LHsieCI6MjI5LjE1MjM0Mzc1LCJ5IjoyNTI2Ljk2MDY0ODgwMTgxNX1d" data-look="classic" marker-end="url(#my-svg_flowchart-v2-pointEnd)"/></g><g class="edgeLabels"><g class="edgeLabel"><g class="label" data-id="L_Start_Hyd_0" transform="translate(0, 0)"><foreignObject width="0" height="0"><div xmlns="http://www.w3.org/1999/xhtml" class="labelBkg" style="display: table-cell; white-space: nowrap; line-height: 1.5; max-width: 200px; text-align: center;"><span class="edgeLabel"></span></div></foreignObject></g></g><g class="edgeLabel"><g class="label" data-id="L_Hyd_Tok_0" transform="translate(0, 0)"><foreignObject width="0" height="0"><div xmlns="http://www.w3.org/1999/xhtml" class="labelBkg" style="display: table-cell; white-space: nowrap; line-height: 1.5; max-width: 200px; text-align: center;"><span class="edgeLabel"></span></div></foreignObject></g></g><g class="edgeLabel" transform="translate(371.30859375, 467.328125)"><g class="label" data-id="L_Tok_Me_0" transform="translate(-13.828125, -12)"><foreignObject width="27.65625" height="24"><div xmlns="http://www.w3.org/1999/xhtml" class="labelBkg" style="display: table-cell; white-space: nowrap; line-height: 1.5; max-width: 200px; text-align: center;"><span class="edgeLabel"><p>yes</p></span></div></foreignObject></g></g><g class="edgeLabel"><g class="label" data-id="L_Me_MeOk_0" transform="translate(0, 0)"><foreignObject width="0" height="0"><div xmlns="http://www.w3.org/1999/xhtml" class="labelBkg" style="display: table-cell; white-space: nowrap; line-height: 1.5; max-width: 200px; text-align: center;"><span class="edgeLabel"></span></div></foreignObject></g></g><g class="edgeLabel" transform="translate(21.828125, 1659.3125)"><g class="label" data-id="L_MeOk_Auth_0" transform="translate(-13.828125, -12)"><foreignObject width="27.65625" height="24"><div xmlns="http://www.w3.org/1999/xhtml" class="labelBkg" style="display: table-cell; white-space: nowrap; line-height: 1.5; max-width: 200px; text-align: center;"><span class="edgeLabel"><p>yes</p></span></div></foreignObject></g></g><g class="edgeLabel" transform="translate(474.43359375, 758.359375)"><g class="label" data-id="L_MeOk_Refresh_0" transform="translate(-9.96875, -12)"><foreignObject width="19.9375" height="24"><div xmlns="http://www.w3.org/1999/xhtml" class="labelBkg" style="display: table-cell; white-space: nowrap; line-height: 1.5; max-width: 200px; text-align: center;"><span class="edgeLabel"><p>no</p></span></div></foreignObject></g></g><g class="edgeLabel" transform="translate(299.75, 1048.59375)"><g class="label" data-id="L_Refresh_Rfr_0" transform="translate(-13.828125, -12)"><foreignObject width="27.65625" height="24"><div xmlns="http://www.w3.org/1999/xhtml" class="labelBkg" style="display: table-cell; white-space: nowrap; line-height: 1.5; max-width: 200px; text-align: center;"><span class="edgeLabel"><p>yes</p></span></div></foreignObject></g></g><g class="edgeLabel"><g class="label" data-id="L_Rfr_RfrOk_0" transform="translate(0, 0)"><foreignObject width="0" height="0"><div xmlns="http://www.w3.org/1999/xhtml" class="labelBkg" style="display: table-cell; white-space: nowrap; line-height: 1.5; max-width: 200px; text-align: center;"><span class="edgeLabel"></span></div></foreignObject></g></g><g class="edgeLabel" transform="translate(297.50761, 1348.30272)"><g class="label" data-id="L_RfrOk_Store_0" transform="translate(-13.828125, -12)"><foreignObject width="27.65625" height="24"><div xmlns="http://www.w3.org/1999/xhtml" class="labelBkg" style="display: table-cell; white-space: nowrap; line-height: 1.5; max-width: 200px; text-align: center;"><span class="edgeLabel"><p>yes</p></span></div></foreignObject></g></g><g class="edgeLabel"><g class="label" data-id="L_Store_Me_0" transform="translate(0, 0)"><foreignObject width="0" height="0"><div xmlns="http://www.w3.org/1999/xhtml" class="labelBkg" style="display: table-cell; white-space: nowrap; line-height: 1.5; max-width: 200px; text-align: center;"><span class="edgeLabel"></span></div></foreignObject></g></g><g class="edgeLabel" transform="translate(307.17355, 1347.03851)"><g class="label" data-id="L_RfrOk_Clear_0" transform="translate(-9.96875, -12)"><foreignObject width="19.9375" height="24"><div xmlns="http://www.w3.org/1999/xhtml" class="labelBkg" style="display: table-cell; white-space: nowrap; line-height: 1.5; max-width: 200px; text-align: center;"><span class="edgeLabel"><p>no</p></span></div></foreignObject></g></g><g class="edgeLabel"><g class="label" data-id="L_Clear_Login_0" transform="translate(0, 0)"><foreignObject width="0" height="0"><div xmlns="http://www.w3.org/1999/xhtml" class="labelBkg" style="display: table-cell; white-space: nowrap; line-height: 1.5; max-width: 200px; text-align: center;"><span class="edgeLabel"></span></div></foreignObject></g></g><g class="edgeLabel" transform="translate(588.45703125, 1251.109375)"><g class="label" data-id="L_Refresh_Login_0" transform="translate(-9.96875, -12)"><foreignObject width="19.9375" height="24"><div xmlns="http://www.w3.org/1999/xhtml" class="labelBkg" style="display: table-cell; white-space: nowrap; line-height: 1.5; max-width: 200px; text-align: center;"><span class="edgeLabel"><p>no</p></span></div></foreignObject></g></g><g class="edgeLabel" transform="translate(762.41796875, 1048.59375)"><g class="label" data-id="L_Tok_Login_0" transform="translate(-9.96875, -12)"><foreignObject width="19.9375" height="24"><div xmlns="http://www.w3.org/1999/xhtml" class="labelBkg" style="display: table-cell; white-space: nowrap; line-height: 1.5; max-width: 200px; text-align: center;"><span class="edgeLabel"><p>no</p></span></div></foreignObject></g></g><g class="edgeLabel"><g class="label" data-id="L_Login_Mode_0" transform="translate(0, 0)"><foreignObject width="0" height="0"><div xmlns="http://www.w3.org/1999/xhtml" class="labelBkg" style="display: table-cell; white-space: nowrap; line-height: 1.5; max-width: 200px; text-align: center;"><span class="edgeLabel"></span></div></foreignObject></g></g><g class="edgeLabel" transform="translate(124.05859375, 1973.875)"><g class="label" data-id="L_Mode_POSTLog_0" transform="translate(-19.4921875, -12)"><foreignObject width="38.984375" height="24"><div xmlns="http://www.w3.org/1999/xhtml" class="labelBkg" style="display: table-cell; white-space: nowrap; line-height: 1.5; max-width: 200px; text-align: center;"><span class="edgeLabel"><p>login</p></span></div></foreignObject></g></g><g class="edgeLabel" transform="translate(618.42578125, 1751)"><g class="label" data-id="L_Mode_POSTReg_0" transform="translate(-30.8515625, -12)"><foreignObject width="61.703125" height="24"><div xmlns="http://www.w3.org/1999/xhtml" class="labelBkg" style="display: table-cell; white-space: nowrap; line-height: 1.5; max-width: 200px; text-align: center;"><span class="edgeLabel"><p>register</p></span></div></foreignObject></g></g><g class="edgeLabel"><g class="label" data-id="L_POSTReg_First_0" transform="translate(0, 0)"><foreignObject width="0" height="0"><div xmlns="http://www.w3.org/1999/xhtml" class="labelBkg" style="display: table-cell; white-space: nowrap; line-height: 1.5; max-width: 200px; text-align: center;"><span class="edgeLabel"></span></div></foreignObject></g></g><g class="edgeLabel" transform="translate(299.05859375, 2082.75)"><g class="label" data-id="L_First_Promote_0" transform="translate(-13.828125, -12)"><foreignObject width="27.65625" height="24"><div xmlns="http://www.w3.org/1999/xhtml" class="labelBkg" style="display: table-cell; white-space: nowrap; line-height: 1.5; max-width: 200px; text-align: center;"><span class="edgeLabel"><p>yes</p></span></div></foreignObject></g></g><g class="edgeLabel" transform="translate(753.0234375, 2082.75)"><g class="label" data-id="L_First_Reg_0" transform="translate(-9.96875, -12)"><foreignObject width="19.9375" height="24"><div xmlns="http://www.w3.org/1999/xhtml" class="labelBkg" style="display: table-cell; white-space: nowrap; line-height: 1.5; max-width: 200px; text-align: center;"><span class="edgeLabel"><p>no</p></span></div></foreignObject></g></g><g class="edgeLabel"><g class="label" data-id="L_Promote_POSTLog_0" transform="translate(0, 0)"><foreignObject width="0" height="0"><div xmlns="http://www.w3.org/1999/xhtml" class="labelBkg" style="display: table-cell; white-space: nowrap; line-height: 1.5; max-width: 200px; text-align: center;"><span class="edgeLabel"></span></div></foreignObject></g></g><g class="edgeLabel"><g class="label" data-id="L_Reg_POSTLog_0" transform="translate(0, 0)"><foreignObject width="0" height="0"><div xmlns="http://www.w3.org/1999/xhtml" class="labelBkg" style="display: table-cell; white-space: nowrap; line-height: 1.5; max-width: 200px; text-align: center;"><span class="edgeLabel"></span></div></foreignObject></g></g><g class="edgeLabel"><g class="label" data-id="L_POSTLog_Issue_0" transform="translate(0, 0)"><foreignObject width="0" height="0"><div xmlns="http://www.w3.org/1999/xhtml" class="labelBkg" style="display: table-cell; white-space: nowrap; line-height: 1.5; max-width: 200px; text-align: center;"><span class="edgeLabel"></span></div></foreignObject></g></g><g class="edgeLabel"><g class="label" data-id="L_Issue_Auth_0" transform="translate(0, 0)"><foreignObject width="0" height="0"><div xmlns="http://www.w3.org/1999/xhtml" class="labelBkg" style="display: table-cell; white-space: nowrap; line-height: 1.5; max-width: 200px; text-align: center;"><span class="edgeLabel"></span></div></foreignObject></g></g></g><g class="nodes"><g class="node default" id="my-svg-flowchart-Start-0" data-look="classic" transform="translate(443.7421875, 30)"><g class="basic label-container outer-path"><path d="M-56.015625 -22 C-25.135822785942008 -22, 5.743979428115985 -22, 56.015625 -22 C56.015625 -22, 56.015625 -22, 56.015625 -22 C56.57429004296791 -21.982084699447558, 57.13295508593582 -21.964169398895116, 57.42516983957568 -21.9547986405074 C57.973200381455904 -21.90193079323537, 58.52123092333613 -21.849062945963343, 58.82892255705913 -21.819380304111416 C59.15585924580359 -21.7665237157071, 59.482795934548044 -21.713667127302784, 60.221114831430185 -21.59430145380344 C60.729966808070415 -21.478159310704775, 61.23881878471065 -21.362017167606115, 61.596025846009155 -21.280486986858648 C62.116645680039255 -21.12596975290779, 62.637265514069355 -20.97145251895693, 62.94800579651965 -20.87922643423471 C63.409445811738955 -20.709412243129265, 63.87088582695826 -20.53959805202382, 64.27149910734623 -20.39216866161248 C64.66309388845639 -20.21882126826147, 65.05468866956654 -20.045473874910456, 65.56106726058627 -19.821315093853222 C65.92009628767053 -19.63400988039243, 66.27912531475481 -19.446704666931637, 66.81141114408663 -19.16901149071457 C67.28421641501751 -18.882394156964086, 67.7570216859484 -18.595776823213598, 68.01739282663206 -18.437938307620495 C68.2782158590704 -18.255999451038612, 68.53903889150874 -18.074060594456725, 69.17405667080675 -17.631099681095044 C69.53720923218019 -17.341495177295247, 69.90036179355361 -17.05189067349545, 70.27664969677134 -16.75181108412096 C70.59488663668938 -16.462796715375422, 70.91312357660742 -16.17378234662989, 71.32064111327671 -15.803685702150007 C71.64078542383062 -15.47311041716637, 71.96092973438454 -15.142535132182731, 72.30174093565694 -14.790619585748974 C72.6001619912858 -14.4400772331682, 72.89858304691468 -14.089534880587426, 73.21591761429666 -13.71677564089214 C73.5468602959108 -13.273342597027717, 73.87780297752494 -12.829909553163295, 74.05941460113303 -12.586566522687738 C74.24590383886748 -12.300068974155513, 74.43239307660193 -12.01357142562329, 74.82876578611761 -11.404636502831554 C75.06518715941455 -10.984846414282813, 75.30160853271148 -10.565056325734071, 75.520809740206 -10.175842385298376 C75.757144614924 -9.685087961190197, 75.99347948964201 -9.194333537082018, 76.13270270634787 -8.905233548692669 C76.26282511335626 -8.58382868763637, 76.39294752036464 -8.26242382658007, 76.66193028509473 -7.598031197268778 C76.75110854105802 -7.3294404989328505, 76.84028679702132 -7.060849800596922, 77.10631776680654 -6.25960690588272 C77.23712041068119 -5.760799734564213, 77.36792305455585 -5.261992563245705, 77.46403906800012 -4.895460547038919 C77.52594915254456 -4.57756534760426, 77.58785923708898 -4.259670148169601, 77.7336242351179 -3.511197690734351 C77.80020022440773 -2.9948474647185757, 77.86677621369755 -2.4784972387028006, 77.91396548488237 -2.112506569969003 C77.9422684295063 -1.671665361725477, 77.97057137413024 -1.2308241534819513, 78.00432175641514 -0.7051347065764136 C78.00432175641514 -0.2995103802403834, 78.00432175641514 0.10611394609564684, 78.00432175641514 0.7051347065764083 C77.96896781702503 1.255800849763479, 77.93361387763494 1.8064669929505492, 77.91396548488237 2.112506569968988 C77.85179980470468 2.594651309425013, 77.789634124527 3.0767960488810377, 77.7336242351179 3.5111976907343356 C77.67652123703976 3.8044095171426693, 77.61941823896161 4.097621343551003, 77.46403906800012 4.8954605470389145 C77.38181790926423 5.209005460174475, 77.29959675052834 5.522550373310034, 77.10631776680654 6.2596069058827055 C77.0158515413254 6.532076763196306, 76.92538531584425 6.804546620509907, 76.66193028509473 7.598031197268764 C76.54522866527154 7.886286454504354, 76.42852704544836 8.174541711739945, 76.13270270634787 8.905233548692664 C75.93117730375428 9.323705359131122, 75.72965190116068 9.74217716956958, 75.520809740206 10.17584238529837 C75.35828383248364 10.46442359199218, 75.19575792476128 10.753004798685987, 74.82876578611761 11.404636502831549 C74.63376553481932 11.704209253724992, 74.43876528352101 12.003782004618435, 74.05941460113303 12.586566522687725 C73.76654463671318 12.978985594007684, 73.47367467229333 13.371404665327644, 73.21591761429666 13.716775640892134 C72.97268314889769 14.002492684382927, 72.72944868349872 14.28820972787372, 72.30174093565695 14.790619585748962 C72.06984413913817 15.03007206723568, 71.83794734261937 15.269524548722401, 71.32064111327671 15.803685702150002 C71.02218787732998 16.07473303439692, 70.72373464138325 16.34578036664384, 70.27664969677136 16.751811084120945 C69.84186469804895 17.098540550487336, 69.40707969932653 17.44527001685373, 69.17405667080675 17.631099681095044 C68.79451518907277 17.895851388666735, 68.41497370733877 18.160603096238425, 68.01739282663208 18.437938307620488 C67.57191574405411 18.707989132993173, 67.12643866147614 18.97803995836586, 66.81141114408663 19.169011490714567 C66.47489649074394 19.34457096981553, 66.13838183740124 19.52013044891649, 65.56106726058628 19.82131509385322 C65.13842038207756 20.00840832959484, 64.71577350356881 20.19550156533646, 64.27149910734624 20.392168661612477 C63.99596729328762 20.49356691617422, 63.720435479228996 20.59496517073596, 62.948005796519666 20.879226434234706 C62.58167888756007 20.987950337924733, 62.21535197860047 21.09667424161476, 61.596025846009184 21.280486986858644 C61.110724864531676 21.39125376899602, 60.625423883054175 21.502020551133395, 60.2211148314302 21.59430145380344 C59.66863936184239 21.683621403215138, 59.11616389225458 21.772941352626837, 58.828922557059144 21.819380304111412 C58.51565913109872 21.849600450059423, 58.2023957051383 21.879820596007434, 57.42516983957568 21.9547986405074 C56.948966054787505 21.97006956901112, 56.47276226999933 21.985340497514837, 56.01562500000001 22 C56.01562500000001 22, 56.015625 22, 56.015625 22 C27.03378912363002 22, -1.9480467527399625 22, -56.01562499999999 22 C-56.43086338446384 21.98668411322273, -56.84610176892769 21.973368226445455, -57.42516983957567 21.9547986405074 C-57.92365505344525 21.906710371441584, -58.42214026731483 21.858622102375765, -58.82892255705914 21.819380304111412 C-59.22657779712535 21.75509048875995, -59.624233037191566 21.69080067340849, -60.221114831430185 21.59430145380344 C-60.49766448158191 21.53118080081143, -60.77421413173362 21.468060147819422, -61.596025846009155 21.280486986858648 C-62.05714919170269 21.14362799834264, -62.518272537396236 21.006769009826638, -62.948005796519645 20.879226434234717 C-63.42689766865706 20.70298979846021, -63.90578954079448 20.526753162685697, -64.27149910734623 20.39216866161248 C-64.57343081802216 20.25851244978222, -64.87536252869809 20.12485623795196, -65.56106726058627 19.821315093853222 C-65.98591290736923 19.59967339205318, -66.41075855415218 19.378031690253135, -66.81141114408662 19.16901149071457 C-67.23484111661848 18.912325753015036, -67.65827108915035 18.6556400153155, -68.01739282663206 18.437938307620502 C-68.4584098232046 18.130303942129576, -68.89942681977716 17.82266957663865, -69.17405667080675 17.631099681095048 C-69.51019799567138 17.36303591961184, -69.84633932053599 17.09497215812863, -70.27664969677134 16.751811084120963 C-70.49811660821105 16.5506806948448, -70.71958351965074 16.34955030556864, -71.3206411132767 15.803685702150016 C-71.56302677477319 15.553402606421972, -71.8054124362697 15.30311951069393, -72.30174093565694 14.790619585748969 C-72.51678042104467 14.538021970119189, -72.7318199064324 14.285424354489408, -73.21591761429666 13.716775640892141 C-73.41371915099896 13.451739601801762, -73.61152068770126 13.186703562711385, -74.05941460113303 12.58656652268774 C-74.23878178054272 12.311010368282775, -74.41814895995242 12.03545421387781, -74.8287657861176 11.404636502831563 C-75.06012676310417 10.99383166035257, -75.29148774009074 10.583026817873577, -75.520809740206 10.175842385298377 C-75.75743350023568 9.684488084659368, -75.99405726026535 9.193133784020356, -76.13270270634787 8.90523354869267 C-76.31391284219748 8.457641009684489, -76.49512297804709 8.010048470676308, -76.66193028509473 7.598031197268781 C-76.80194226107551 7.176337433493575, -76.9419542370563 6.754643669718369, -77.10631776680654 6.2596069058827135 C-77.18838483547269 5.946649604966138, -77.27045190413884 5.633692304049563, -77.46403906800012 4.8954605470389225 C-77.52347761047521 4.590256193769756, -77.58291615295029 4.285051840500589, -77.7336242351179 3.5111976907343534 C-77.7779415432341 3.167481400427366, -77.82225885135031 2.8237651101203785, -77.91396548488235 2.1125065699690153 C-77.94067131328642 1.6965417360192008, -77.96737714169046 1.2805769020693862, -78.00432175641514 0.7051347065764164 C-78.00432175641514 0.4081576285932867, -78.00432175641514 0.11118055061015697, -78.00432175641514 -0.7051347065764058 C-77.97719292582367 -1.1276881410363027, -77.95006409523222 -1.5502415754961998, -77.91396548488237 -2.112506569968985 C-77.86996627277223 -2.4537557704679847, -77.82596706066211 -2.795004970966984, -77.7336242351179 -3.511197690734343 C-77.65951864855457 -3.891714215515808, -77.58541306199123 -4.272230740297274, -77.46403906800012 -4.895460547038912 C-77.3887953550335 -5.182397435412131, -77.31355164206687 -5.4693343237853504, -77.10631776680654 -6.259606905882703 C-76.9728526256894 -6.66158264614511, -76.83938748457226 -7.063558386407517, -76.66193028509474 -7.598031197268753 C-76.50090242753346 -7.995773118706951, -76.33987456997217 -8.393515040145148, -76.13270270634787 -8.90523354869266 C-75.95441799878859 -9.275445558621154, -75.7761332912293 -9.64565756854965, -75.520809740206 -10.175842385298369 C-75.36327216687879 -10.45556629914997, -75.20573459355157 -10.735290213001573, -74.82876578611761 -11.404636502831556 C-74.553631187456 -11.827317130360264, -74.2784965887944 -12.24999775788897, -74.05941460113303 -12.586566522687733 C-73.88754935279188 -12.816850298218654, -73.71568410445072 -13.047134073749575, -73.21591761429666 -13.716775640892134 C-72.88380033173789 -14.106899498994409, -72.5516830491791 -14.497023357096682, -72.30174093565695 -14.790619585748962 C-71.9898344161047 -15.112688675188156, -71.67792789655245 -15.434757764627353, -71.32064111327671 -15.803685702149995 C-70.96887856481582 -16.12314714153515, -70.61711601635494 -16.442608580920304, -70.27664969677136 -16.75181108412094 C-69.85911928376713 -17.084780477540896, -69.4415888707629 -17.41774987096085, -69.17405667080676 -17.63109968109504 C-68.79365370527982 -17.896452322467667, -68.41325073975287 -18.161804963840293, -68.01739282663209 -18.437938307620485 C-67.70602171085383 -18.626693307825043, -67.39465059507559 -18.815448308029605, -66.81141114408663 -19.169011490714563 C-66.36199842683665 -19.403469817441298, -65.91258570958666 -19.637928144168033, -65.56106726058628 -19.82131509385322 C-65.20996724568252 -19.97673665543922, -64.85886723077877 -20.132158217025214, -64.27149910734624 -20.392168661612473 C-63.9077065349762 -20.526047691106324, -63.543913962606155 -20.65992672060018, -62.94800579651967 -20.879226434234706 C-62.62878360290122 -20.973969905669176, -62.309561409282765 -21.068713377103645, -61.596025846009184 -21.28048698685864 C-61.3078522767402 -21.346260723536005, -61.019678707471215 -21.41203446021337, -60.2211148314302 -21.594301453803435 C-59.92438340314689 -21.642274689941686, -59.62765197486359 -21.690247926079937, -58.828922557059144 -21.819380304111412 C-58.4567459060486 -21.85528373802649, -58.08456925503806 -21.891187171941567, -57.42516983957569 -21.9547986405074 C-56.950338155349954 -21.970025568416713, -56.47550647112423 -21.985252496326027, -56.01562500000001 -22 C-56.01562500000001 -22, -56.015625 -22, -56.015625 -22" stroke="none" stroke-width="0" fill="#eef2ff" style=""/><path d="M-56.015625 -22 C-17.945322802993125 -22, 20.12497939401375 -22, 56.015625 -22 M-56.015625 -22 C-28.92115900799261 -22, -1.8266930159852208 -22, 56.015625 -22 M56.015625 -22 C56.015625 -22, 56.015625 -22, 56.015625 -22 M56.015625 -22 C56.015625 -22, 56.015625 -22, 56.015625 -22 M56.015625 -22 C56.40809860544538 -21.987414135376895, 56.800572210890756 -21.974828270753793, 57.42516983957568 -21.9547986405074 M56.015625 -22 C56.525888398755875 -21.983636845969354, 57.03615179751175 -21.967273691938704, 57.42516983957568 -21.9547986405074 M57.42516983957568 -21.9547986405074 C57.92375317679262 -21.906700905600275, 58.42233651400957 -21.858603170693147, 58.82892255705913 -21.819380304111416 M57.42516983957568 -21.9547986405074 C57.799771161996674 -21.91866130145745, 58.174372484417674 -21.8825239624075, 58.82892255705913 -21.819380304111416 M58.82892255705913 -21.819380304111416 C59.27487890063901 -21.74728154092452, 59.72083524421888 -21.675182777737618, 60.221114831430185 -21.59430145380344 M58.82892255705913 -21.819380304111416 C59.36481771205853 -21.732740931380107, 59.90071286705793 -21.6461015586488, 60.221114831430185 -21.59430145380344 M60.221114831430185 -21.59430145380344 C60.66431857820808 -21.49314309077612, 61.10752232498598 -21.3919847277488, 61.596025846009155 -21.280486986858648 M60.221114831430185 -21.59430145380344 C60.67460110877043 -21.490796170275047, 61.12808738611067 -21.387290886746655, 61.596025846009155 -21.280486986858648 M61.596025846009155 -21.280486986858648 C61.916944786589355 -21.18523992983234, 62.23786372716955 -21.089992872806032, 62.94800579651965 -20.87922643423471 M61.596025846009155 -21.280486986858648 C62.0924341191222 -21.133155617098893, 62.58884239223525 -20.98582424733914, 62.94800579651965 -20.87922643423471 M62.94800579651965 -20.87922643423471 C63.238354635434746 -20.77237537755871, 63.52870347434984 -20.665524320882714, 64.27149910734623 -20.39216866161248 M62.94800579651965 -20.87922643423471 C63.34323659947664 -20.733777845273046, 63.73846740243363 -20.588329256311383, 64.27149910734623 -20.39216866161248 M64.27149910734623 -20.39216866161248 C64.57252813340914 -20.258912041483217, 64.87355715947203 -20.125655421353954, 65.56106726058627 -19.821315093853222 M64.27149910734623 -20.39216866161248 C64.60249206273565 -20.24564789881875, 64.93348501812507 -20.09912713602502, 65.56106726058627 -19.821315093853222 M65.56106726058627 -19.821315093853222 C66.023343715789 -19.580145763276164, 66.48562017099172 -19.33897643269911, 66.81141114408663 -19.16901149071457 M65.56106726058627 -19.821315093853222 C66.05459434431977 -19.563842330388642, 66.54812142805326 -19.30636956692406, 66.81141114408663 -19.16901149071457 M66.81141114408663 -19.16901149071457 C67.1827927049718 -18.94387780602568, 67.55417426585696 -18.718744121336787, 68.01739282663206 -18.437938307620495 M66.81141114408663 -19.16901149071457 C67.21899292287998 -18.92193302119365, 67.6265747016733 -18.674854551672727, 68.01739282663206 -18.437938307620495 M68.01739282663206 -18.437938307620495 C68.35483701596979 -18.20255184886202, 68.69228120530751 -17.967165390103542, 69.17405667080675 -17.631099681095044 M68.01739282663206 -18.437938307620495 C68.33499567530069 -18.216392309194987, 68.65259852396932 -17.99484631076948, 69.17405667080675 -17.631099681095044 M69.17405667080675 -17.631099681095044 C69.413966157845 -17.439778249441616, 69.65387564488324 -17.248456817788185, 70.27664969677134 -16.75181108412096 M69.17405667080675 -17.631099681095044 C69.60750538874854 -17.28543586309128, 70.04095410669032 -16.939772045087512, 70.27664969677134 -16.75181108412096 M70.27664969677134 -16.75181108412096 C70.66112176781785 -16.402643721770083, 71.04559383886435 -16.05347635941921, 71.32064111327671 -15.803685702150007 M70.27664969677134 -16.75181108412096 C70.63350420682836 -16.427725259940118, 70.99035871688537 -16.103639435759277, 71.32064111327671 -15.803685702150007 M71.32064111327671 -15.803685702150007 C71.62836825884544 -15.485932159481772, 71.93609540441417 -15.168178616813536, 72.30174093565694 -14.790619585748974 M71.32064111327671 -15.803685702150007 C71.57671922651807 -15.539264025824208, 71.83279733975942 -15.274842349498407, 72.30174093565694 -14.790619585748974 M72.30174093565694 -14.790619585748974 C72.50866678157878 -14.547552712714984, 72.71559262750064 -14.304485839680995, 73.21591761429666 -13.71677564089214 M72.30174093565694 -14.790619585748974 C72.58228819224688 -14.461072814567299, 72.86283544883682 -14.131526043385623, 73.21591761429666 -13.71677564089214 M73.21591761429666 -13.71677564089214 C73.41144332489306 -13.45478900145165, 73.60696903548944 -13.192802362011157, 74.05941460113303 -12.586566522687738 M73.21591761429666 -13.71677564089214 C73.43800453374995 -13.419199401359323, 73.66009145320322 -13.121623161826507, 74.05941460113303 -12.586566522687738 M74.05941460113303 -12.586566522687738 C74.29923091905573 -12.218144258660287, 74.53904723697845 -11.849721994632835, 74.82876578611761 -11.404636502831554 M74.05941460113303 -12.586566522687738 C74.34673400105522 -12.145166768345488, 74.63405340097744 -11.703767014003237, 74.82876578611761 -11.404636502831554 M74.82876578611761 -11.404636502831554 C74.98477061110756 -11.127634138860383, 75.14077543609751 -10.850631774889214, 75.520809740206 -10.175842385298376 M74.82876578611761 -11.404636502831554 C75.07769085616968 -10.96264483455748, 75.32661592622175 -10.520653166283406, 75.520809740206 -10.175842385298376 M75.520809740206 -10.175842385298376 C75.71292967396322 -9.776901232143471, 75.90504960772041 -9.377960078988565, 76.13270270634787 -8.905233548692669 M75.520809740206 -10.175842385298376 C75.6443516567263 -9.91930495227044, 75.76789357324658 -9.662767519242506, 76.13270270634787 -8.905233548692669 M76.13270270634787 -8.905233548692669 C76.29523559604777 -8.50377416877425, 76.45776848574769 -8.102314788855828, 76.66193028509473 -7.598031197268778 M76.13270270634787 -8.905233548692669 C76.26202952420206 -8.585793808228908, 76.39135634205624 -8.266354067765148, 76.66193028509473 -7.598031197268778 M76.66193028509473 -7.598031197268778 C76.77560229630816 -7.2556692106693585, 76.8892743075216 -6.913307224069939, 77.10631776680654 -6.25960690588272 M76.66193028509473 -7.598031197268778 C76.82477847493278 -7.107558395812018, 76.98762666477084 -6.617085594355258, 77.10631776680654 -6.25960690588272 M77.10631776680654 -6.25960690588272 C77.21337807781234 -5.851339539785331, 77.32043838881812 -5.443072173687942, 77.46403906800012 -4.895460547038919 M77.10631776680654 -6.25960690588272 C77.20779023270285 -5.872648414975195, 77.30926269859914 -5.48568992406767, 77.46403906800012 -4.895460547038919 M77.46403906800012 -4.895460547038919 C77.56222269744352 -4.391308360964538, 77.6604063268869 -3.8871561748901557, 77.7336242351179 -3.511197690734351 M77.46403906800012 -4.895460547038919 C77.54852102082985 -4.461663574525303, 77.63300297365959 -4.027866602011685, 77.7336242351179 -3.511197690734351 M77.7336242351179 -3.511197690734351 C77.78450607341652 -3.116568200645678, 77.83538791171515 -2.7219387105570045, 77.91396548488237 -2.112506569969003 M77.7336242351179 -3.511197690734351 C77.77025807601483 -3.227072854907903, 77.80689191691177 -2.9429480190814545, 77.91396548488237 -2.112506569969003 M77.91396548488237 -2.112506569969003 C77.93207352524004 -1.830459224851121, 77.95018156559772 -1.548411879733239, 78.00432175641514 -0.7051347065764136 M77.91396548488237 -2.112506569969003 C77.94917977040312 -1.5640156485236874, 77.98439405592386 -1.0155247270783718, 78.00432175641514 -0.7051347065764136 M78.00432175641514 -0.7051347065764136 C78.00432175641514 -0.3331703890295065, 78.00432175641514 0.0387939285174006, 78.00432175641514 0.7051347065764083 M78.00432175641514 -0.7051347065764136 C78.00432175641514 -0.3682762820496764, 78.00432175641514 -0.03141785752293913, 78.00432175641514 0.7051347065764083 M78.00432175641514 0.7051347065764083 C77.97204645898383 1.2078485162202552, 77.93977116155251 1.7105623258641018, 77.91396548488237 2.112506569968988 M78.00432175641514 0.7051347065764083 C77.96998287101867 1.239990564475753, 77.9356439856222 1.7748464223750973, 77.91396548488237 2.112506569968988 M77.91396548488237 2.112506569968988 C77.85733925904238 2.5516883954708898, 77.80071303320238 2.9908702209727918, 77.7336242351179 3.5111976907343356 M77.91396548488237 2.112506569968988 C77.8511219596897 2.599908541505542, 77.78827843449704 3.0873105130420964, 77.7336242351179 3.5111976907343356 M77.7336242351179 3.5111976907343356 C77.67033291854335 3.836185224720163, 77.6070416019688 4.16117275870599, 77.46403906800012 4.8954605470389145 M77.7336242351179 3.5111976907343356 C77.62865186450603 4.050208627907968, 77.52367949389414 4.589219565081599, 77.46403906800012 4.8954605470389145 M77.46403906800012 4.8954605470389145 C77.38184848910184 5.208888846000289, 77.29965791020356 5.522317144961664, 77.10631776680654 6.2596069058827055 M77.46403906800012 4.8954605470389145 C77.36388686409195 5.277384306780498, 77.26373466018379 5.659308066522083, 77.10631776680654 6.2596069058827055 M77.10631776680654 6.2596069058827055 C76.98314417079993 6.6305861520072025, 76.85997057479334 7.001565398131699, 76.66193028509473 7.598031197268764 M77.10631776680654 6.2596069058827055 C76.95830947308637 6.705384304648709, 76.81030117936622 7.151161703414713, 76.66193028509473 7.598031197268764 M76.66193028509473 7.598031197268764 C76.51607910707835 7.9582864268099005, 76.37022792906198 8.318541656351037, 76.13270270634787 8.905233548692664 M76.66193028509473 7.598031197268764 C76.55328611403554 7.866384400277099, 76.44464194297636 8.134737603285433, 76.13270270634787 8.905233548692664 M76.13270270634787 8.905233548692664 C75.94983492788369 9.284962403417204, 75.7669671494195 9.664691258141742, 75.520809740206 10.17584238529837 M76.13270270634787 8.905233548692664 C75.95268326824613 9.279047763709857, 75.7726638301444 9.65286197872705, 75.520809740206 10.17584238529837 M75.520809740206 10.17584238529837 C75.36414898326802 10.454009422863587, 75.20748822633004 10.732176460428803, 74.82876578611761 11.404636502831549 M75.520809740206 10.17584238529837 C75.32146800650543 10.529793819023118, 75.12212627280486 10.883745252747863, 74.82876578611761 11.404636502831549 M74.82876578611761 11.404636502831549 C74.63437984608203 11.703265506659795, 74.43999390604644 12.00189451048804, 74.05941460113303 12.586566522687725 M74.82876578611761 11.404636502831549 C74.56867188808931 11.804210575193856, 74.30857799006101 12.203784647556164, 74.05941460113303 12.586566522687725 M74.05941460113303 12.586566522687725 C73.83995333135145 12.880624630862057, 73.62049206156988 13.174682739036387, 73.21591761429666 13.716775640892134 M74.05941460113303 12.586566522687725 C73.87580844553484 12.832582044324413, 73.69220228993666 13.078597565961099, 73.21591761429666 13.716775640892134 M73.21591761429666 13.716775640892134 C73.02268051372172 13.943762934729955, 72.8294434131468 14.170750228567776, 72.30174093565695 14.790619585748962 M73.21591761429666 13.716775640892134 C72.91041632761481 14.075634835744292, 72.60491504093298 14.434494030596449, 72.30174093565695 14.790619585748962 M72.30174093565695 14.790619585748962 C71.97393704127997 15.129104019893438, 71.646133146903 15.467588454037912, 71.32064111327671 15.803685702150002 M72.30174093565695 14.790619585748962 C72.03760563114614 15.06336097356818, 71.77347032663532 15.336102361387397, 71.32064111327671 15.803685702150002 M71.32064111327671 15.803685702150002 C70.96954058173138 16.122545915288462, 70.61844005018604 16.441406128426923, 70.27664969677136 16.751811084120945 M71.32064111327671 15.803685702150002 C71.03217842764158 16.0656598809394, 70.74371574200646 16.327634059728798, 70.27664969677136 16.751811084120945 M70.27664969677136 16.751811084120945 C69.91381808190533 17.041159641621828, 69.55098646703931 17.330508199122708, 69.17405667080675 17.631099681095044 M70.27664969677136 16.751811084120945 C70.01095309973131 16.96369704977699, 69.74525650269128 17.175583015433034, 69.17405667080675 17.631099681095044 M69.17405667080675 17.631099681095044 C68.76751229735696 17.914687436991336, 68.36096792390717 18.19827519288763, 68.01739282663208 18.437938307620488 M69.17405667080675 17.631099681095044 C68.94026560052261 17.794182211072943, 68.70647453023848 17.957264741050842, 68.01739282663208 18.437938307620488 M68.01739282663208 18.437938307620488 C67.6892925973404 18.63683459474807, 67.36119236804872 18.835730881875655, 66.81141114408663 19.169011490714567 M68.01739282663208 18.437938307620488 C67.56604986464029 18.711545063565566, 67.11470690264849 18.985151819510648, 66.81141114408663 19.169011490714567 M66.81141114408663 19.169011490714567 C66.45525876933708 19.354815956494924, 66.09910639458754 19.540620422275282, 65.56106726058628 19.82131509385322 M66.81141114408663 19.169011490714567 C66.46771346211278 19.348318351251454, 66.12401578013893 19.52762521178834, 65.56106726058628 19.82131509385322 M65.56106726058628 19.82131509385322 C65.08800366471313 20.030726314813286, 64.61494006883997 20.240137535773354, 64.27149910734624 20.392168661612477 M65.56106726058628 19.82131509385322 C65.27816813652029 19.946546144172885, 64.9952690124543 20.07177719449255, 64.27149910734624 20.392168661612477 M64.27149910734624 20.392168661612477 C63.94866214002609 20.510975649858505, 63.62582517270592 20.629782638104537, 62.948005796519666 20.879226434234706 M64.27149910734624 20.392168661612477 C63.90387727181755 20.52745689534603, 63.536255436288855 20.662745129079585, 62.948005796519666 20.879226434234706 M62.948005796519666 20.879226434234706 C62.55679300686025 20.995336336687785, 62.16558021720082 21.111446239140868, 61.596025846009184 21.280486986858644 M62.948005796519666 20.879226434234706 C62.54543719626816 20.998706681663652, 62.14286859601665 21.118186929092598, 61.596025846009184 21.280486986858644 M61.596025846009184 21.280486986858644 C61.08764909881456 21.396520661937508, 60.579272351619935 21.512554337016372, 60.2211148314302 21.59430145380344 M61.596025846009184 21.280486986858644 C61.10526495218528 21.392499958359828, 60.614504058361376 21.50451292986101, 60.2211148314302 21.59430145380344 M60.2211148314302 21.59430145380344 C59.754732731181186 21.669702494924493, 59.28835063093218 21.745103536045548, 58.828922557059144 21.819380304111412 M60.2211148314302 21.59430145380344 C59.805800982134926 21.661446176150495, 59.39048713283966 21.728590898497547, 58.828922557059144 21.819380304111412 M58.828922557059144 21.819380304111412 C58.36523295333881 21.864111882513974, 57.90154334961848 21.908843460916536, 57.42516983957568 21.9547986405074 M58.828922557059144 21.819380304111412 C58.44714334505401 21.85621008553687, 58.065364133048874 21.893039866962326, 57.42516983957568 21.9547986405074 M57.42516983957568 21.9547986405074 C56.91473369827372 21.971167334055277, 56.40429755697177 21.987536027603152, 56.01562500000001 22 M57.42516983957568 21.9547986405074 C56.939524332588924 21.97037234666483, 56.45387882560216 21.98594605282226, 56.01562500000001 22 M56.01562500000001 22 C56.01562500000001 22, 56.015625 22, 56.015625 22 M56.01562500000001 22 C56.01562500000001 22, 56.01562500000001 22, 56.015625 22 M56.015625 22 C14.319663182259717 22, -27.376298635480566 22, -56.01562499999999 22 M56.015625 22 C28.115275902662013 22, 0.2149268053240263 22, -56.01562499999999 22 M-56.01562499999999 22 C-56.56844744399946 21.982272060224545, -57.12126988799893 21.964544120449094, -57.42516983957567 21.9547986405074 M-56.01562499999999 22 C-56.57418814289473 21.98208796718457, -57.13275128578946 21.964175934369138, -57.42516983957567 21.9547986405074 M-57.42516983957567 21.9547986405074 C-57.866795287367765 21.912195564691203, -58.30842073515986 21.86959248887501, -58.82892255705914 21.819380304111412 M-57.42516983957567 21.9547986405074 C-57.79737888828716 21.918892081225074, -58.16958793699866 21.88298552194275, -58.82892255705914 21.819380304111412 M-58.82892255705914 21.819380304111412 C-59.268401173759486 21.748328809570875, -59.70787979045983 21.677277315030338, -60.221114831430185 21.59430145380344 M-58.82892255705914 21.819380304111412 C-59.31287009539939 21.741139419181774, -59.79681763373964 21.662898534252133, -60.221114831430185 21.59430145380344 M-60.221114831430185 21.59430145380344 C-60.58827233044937 21.510500150578903, -60.95542982946855 21.426698847354366, -61.596025846009155 21.280486986858648 M-60.221114831430185 21.59430145380344 C-60.49779518480694 21.531150968653236, -60.77447553818369 21.46800048350303, -61.596025846009155 21.280486986858648 M-61.596025846009155 21.280486986858648 C-61.98067187564943 21.166326064309626, -62.3653179052897 21.052165141760607, -62.948005796519645 20.879226434234717 M-61.596025846009155 21.280486986858648 C-61.97774395443512 21.167195055957063, -62.359462062861084 21.053903125055477, -62.948005796519645 20.879226434234717 M-62.948005796519645 20.879226434234717 C-63.239510883771565 20.771949867482522, -63.531015971023486 20.66467330073033, -64.27149910734623 20.39216866161248 M-62.948005796519645 20.879226434234717 C-63.22686738816056 20.776602790742565, -63.505728979801475 20.673979147250414, -64.27149910734623 20.39216866161248 M-64.27149910734623 20.39216866161248 C-64.53052850564599 20.277504030819266, -64.78955790394576 20.162839400026055, -65.56106726058627 19.821315093853222 M-64.27149910734623 20.39216866161248 C-64.58347534013078 20.254066037804893, -64.89545157291533 20.115963413997306, -65.56106726058627 19.821315093853222 M-65.56106726058627 19.821315093853222 C-66.03847065221784 19.5722540502305, -66.5158740438494 19.323193006607784, -66.81141114408662 19.16901149071457 M-65.56106726058627 19.821315093853222 C-66.05111848734059 19.565655682748282, -66.54116971409492 19.309996271643346, -66.81141114408662 19.16901149071457 M-66.81141114408662 19.16901149071457 C-67.26975408146478 18.891161308553855, -67.72809701884294 18.61331112639314, -68.01739282663206 18.437938307620502 M-66.81141114408662 19.16901149071457 C-67.24485313933522 18.906256406006975, -67.67829513458382 18.64350132129938, -68.01739282663206 18.437938307620502 M-68.01739282663206 18.437938307620502 C-68.35600905858882 18.201734282667893, -68.69462529054559 17.965530257715283, -69.17405667080675 17.631099681095048 M-68.01739282663206 18.437938307620502 C-68.35817079756978 18.20022634713495, -68.6989487685075 17.962514386649396, -69.17405667080675 17.631099681095048 M-69.17405667080675 17.631099681095048 C-69.56943246858228 17.315798003760918, -69.96480826635779 17.00049632642679, -70.27664969677134 16.751811084120963 M-69.17405667080675 17.631099681095048 C-69.43913616887373 17.419705835448326, -69.70421566694071 17.208311989801604, -70.27664969677134 16.751811084120963 M-70.27664969677134 16.751811084120963 C-70.66480827094593 16.399295737168693, -71.05296684512051 16.046780390216426, -71.3206411132767 15.803685702150016 M-70.27664969677134 16.751811084120963 C-70.57341520901524 16.48229649788623, -70.87018072125915 16.2127819116515, -71.3206411132767 15.803685702150016 M-71.3206411132767 15.803685702150016 C-71.66274805193511 15.450432200483176, -72.00485499059353 15.097178698816336, -72.30174093565694 14.790619585748969 M-71.3206411132767 15.803685702150016 C-71.54673912484635 15.570220942212368, -71.77283713641602 15.336756182274717, -72.30174093565694 14.790619585748969 M-72.30174093565694 14.790619585748969 C-72.53045329004574 14.52196104018224, -72.75916564443455 14.253302494615511, -73.21591761429666 13.716775640892141 M-72.30174093565694 14.790619585748969 C-72.6360997729437 14.397862669915128, -72.97045861023047 14.005105754081288, -73.21591761429666 13.716775640892141 M-73.21591761429666 13.716775640892141 C-73.42080842555885 13.442240619737719, -73.62569923682102 13.167705598583296, -74.05941460113303 12.58656652268774 M-73.21591761429666 13.716775640892141 C-73.45766130845756 13.39286111402013, -73.69940500261846 13.06894658714812, -74.05941460113303 12.58656652268774 M-74.05941460113303 12.58656652268774 C-74.2714334465841 12.260848641043237, -74.48345229203517 11.935130759398733, -74.8287657861176 11.404636502831563 M-74.05941460113303 12.58656652268774 C-74.32445952583313 12.179386343820708, -74.58950445053325 11.772206164953676, -74.8287657861176 11.404636502831563 M-74.8287657861176 11.404636502831563 C-75.08694543952731 10.946212384677805, -75.34512509293704 10.487788266524046, -75.520809740206 10.175842385298377 M-74.8287657861176 11.404636502831563 C-74.97495412998371 11.145064295122255, -75.12114247384984 10.885492087412947, -75.520809740206 10.175842385298377 M-75.520809740206 10.175842385298377 C-75.66553467004796 9.875317971864114, -75.81025959988993 9.574793558429848, -76.13270270634787 8.90523354869267 M-75.520809740206 10.175842385298377 C-75.72210763646622 9.757842996629043, -75.92340553272643 9.339843607959708, -76.13270270634787 8.90523354869267 M-76.13270270634787 8.90523354869267 C-76.30248160789458 8.485876379420544, -76.47226050944128 8.066519210148419, -76.66193028509473 7.598031197268781 M-76.13270270634787 8.90523354869267 C-76.3026273207109 8.485516465947063, -76.47255193507394 8.065799383201453, -76.66193028509473 7.598031197268781 M-76.66193028509473 7.598031197268781 C-76.80139602451209 7.177982610991612, -76.94086176392945 6.757934024714443, -77.10631776680654 6.2596069058827135 M-76.66193028509473 7.598031197268781 C-76.8319796124208 7.085869717043595, -77.00202893974685 6.573708236818408, -77.10631776680654 6.2596069058827135 M-77.10631776680654 6.2596069058827135 C-77.22822084212443 5.7947376465685405, -77.35012391744232 5.329868387254367, -77.46403906800012 4.8954605470389225 M-77.10631776680654 6.2596069058827135 C-77.19282782704951 5.929706552478955, -77.2793378872925 5.599806199075198, -77.46403906800012 4.8954605470389225 M-77.46403906800012 4.8954605470389225 C-77.54624134400726 4.473369233199434, -77.62844362001441 4.051277919359945, -77.7336242351179 3.5111976907343534 M-77.46403906800012 4.8954605470389225 C-77.52771828916391 4.568481204970976, -77.59139751032771 4.24150186290303, -77.7336242351179 3.5111976907343534 M-77.7336242351179 3.5111976907343534 C-77.78624439797633 3.1030860986308153, -77.83886456083476 2.694974506527277, -77.91396548488235 2.1125065699690153 M-77.7336242351179 3.5111976907343534 C-77.77640457026668 3.1794018592531783, -77.81918490541544 2.8476060277720037, -77.91396548488235 2.1125065699690153 M-77.91396548488235 2.1125065699690153 C-77.93721387297356 1.750394159687346, -77.96046226106478 1.3882817494056765, -78.00432175641514 0.7051347065764164 M-77.91396548488235 2.1125065699690153 C-77.9382511863959 1.734237165830034, -77.96253688790947 1.3559677616910526, -78.00432175641514 0.7051347065764164 M-78.00432175641514 0.7051347065764164 C-78.00432175641514 0.22382183205379302, -78.00432175641514 -0.25749104246883037, -78.00432175641514 -0.7051347065764058 M-78.00432175641514 0.7051347065764164 C-78.00432175641514 0.24951012165483183, -78.00432175641514 -0.20611446326675276, -78.00432175641514 -0.7051347065764058 M-78.00432175641514 -0.7051347065764058 C-77.98262705205867 -1.0430472385785112, -77.96093234770221 -1.3809597705806167, -77.91396548488237 -2.112506569968985 M-78.00432175641514 -0.7051347065764058 C-77.97871725162197 -1.1039455363143358, -77.9531127468288 -1.502756366052266, -77.91396548488237 -2.112506569968985 M-77.91396548488237 -2.112506569968985 C-77.8702242046175 -2.4517553020104854, -77.82648292435263 -2.7910040340519857, -77.7336242351179 -3.511197690734343 M-77.91396548488237 -2.112506569968985 C-77.85015187710134 -2.60743231049648, -77.78633826932031 -3.102358051023975, -77.7336242351179 -3.511197690734343 M-77.7336242351179 -3.511197690734343 C-77.66861073107843 -3.8450282933681073, -77.60359722703895 -4.178858896001872, -77.46403906800012 -4.895460547038912 M-77.7336242351179 -3.511197690734343 C-77.63706915412924 -4.0069876246875795, -77.54051407314056 -4.502777558640816, -77.46403906800012 -4.895460547038912 M-77.46403906800012 -4.895460547038912 C-77.33719664699633 -5.379165672179361, -77.21035422599255 -5.86287079731981, -77.10631776680654 -6.259606905882703 M-77.46403906800012 -4.895460547038912 C-77.3381010757688 -5.37571669328804, -77.21216308353748 -5.855972839537168, -77.10631776680654 -6.259606905882703 M-77.10631776680654 -6.259606905882703 C-77.0019633150828 -6.57390588785064, -76.89760886335908 -6.888204869818577, -76.66193028509474 -7.598031197268753 M-77.10631776680654 -6.259606905882703 C-76.99817956418327 -6.585301942701221, -76.89004136156 -6.910996979519741, -76.66193028509474 -7.598031197268753 M-76.66193028509474 -7.598031197268753 C-76.53281439811937 -7.916949934383774, -76.403698511144 -8.235868671498794, -76.13270270634787 -8.90523354869266 M-76.66193028509474 -7.598031197268753 C-76.51758289752986 -7.954572035320871, -76.37323550996499 -8.31111287337299, -76.13270270634787 -8.90523354869266 M-76.13270270634787 -8.90523354869266 C-75.99423648228196 -9.19276162566811, -75.85577025821604 -9.48028970264356, -75.520809740206 -10.175842385298369 M-76.13270270634787 -8.90523354869266 C-75.94956978231598 -9.28551298386174, -75.7664368582841 -9.665792419030817, -75.520809740206 -10.175842385298369 M-75.520809740206 -10.175842385298369 C-75.32448157991217 -10.524442914282059, -75.12815341961833 -10.87304344326575, -74.82876578611761 -11.404636502831556 M-75.520809740206 -10.175842385298369 C-75.32847030601157 -10.517360527190254, -75.13613087181714 -10.85887866908214, -74.82876578611761 -11.404636502831556 M-74.82876578611761 -11.404636502831556 C-74.67123514071 -11.646645877078916, -74.51370449530238 -11.888655251326274, -74.05941460113303 -12.586566522687733 M-74.82876578611761 -11.404636502831556 C-74.60442462108149 -11.749284776364815, -74.38008345604537 -12.093933049898075, -74.05941460113303 -12.586566522687733 M-74.05941460113303 -12.586566522687733 C-73.79879116689288 -12.93577818128622, -73.53816773265274 -13.284989839884709, -73.21591761429666 -13.716775640892134 M-74.05941460113303 -12.586566522687733 C-73.77424220022577 -12.968671560163282, -73.48906979931851 -13.350776597638829, -73.21591761429666 -13.716775640892134 M-73.21591761429666 -13.716775640892134 C-73.02461041844046 -13.941495958832645, -72.83330322258426 -14.166216276773156, -72.30174093565695 -14.790619585748962 M-73.21591761429666 -13.716775640892134 C-72.94821461215025 -14.031234819945656, -72.68051161000383 -14.345693998999177, -72.30174093565695 -14.790619585748962 M-72.30174093565695 -14.790619585748962 C-72.0956372498032 -15.003438562820266, -71.88953356394944 -15.21625753989157, -71.32064111327671 -15.803685702149995 M-72.30174093565695 -14.790619585748962 C-71.92224465853006 -15.182480649106271, -71.54274838140317 -15.574341712463582, -71.32064111327671 -15.803685702149995 M-71.32064111327671 -15.803685702149995 C-71.0617747020974 -16.03878132755314, -70.80290829091807 -16.273876952956282, -70.27664969677136 -16.75181108412094 M-71.32064111327671 -15.803685702149995 C-70.94488378014931 -16.144938570102067, -70.56912644702192 -16.48619143805414, -70.27664969677136 -16.75181108412094 M-70.27664969677136 -16.75181108412094 C-69.89970716627239 -17.052412721331866, -69.52276463577343 -17.35301435854279, -69.17405667080676 -17.63109968109504 M-70.27664969677136 -16.75181108412094 C-69.98356255898759 -16.985540277127217, -69.6904754212038 -17.219269470133494, -69.17405667080676 -17.63109968109504 M-69.17405667080676 -17.63109968109504 C-68.83885232674221 -17.864923720752294, -68.50364798267765 -18.098747760409545, -68.01739282663209 -18.437938307620485 M-69.17405667080676 -17.63109968109504 C-68.85637418373977 -17.852701231819758, -68.53869169667277 -18.074302782544475, -68.01739282663209 -18.437938307620485 M-68.01739282663209 -18.437938307620485 C-67.5818500714619 -18.701966885337985, -67.14630731629171 -18.96599546305549, -66.81141114408663 -19.169011490714563 M-68.01739282663209 -18.437938307620485 C-67.64251342475858 -18.665192404072105, -67.26763402288508 -18.89244650052372, -66.81141114408663 -19.169011490714563 M-66.81141114408663 -19.169011490714563 C-66.36187146262526 -19.403536054589058, -65.91233178116387 -19.638060618463552, -65.56106726058628 -19.82131509385322 M-66.81141114408663 -19.169011490714563 C-66.37403265575479 -19.397191567922995, -65.93665416742296 -19.625371645131423, -65.56106726058628 -19.82131509385322 M-65.56106726058628 -19.82131509385322 C-65.18659841119693 -19.987081345254143, -64.81212956180758 -20.152847596655068, -64.27149910734624 -20.392168661612473 M-65.56106726058628 -19.82131509385322 C-65.24458804934719 -19.961411052646522, -64.9281088381081 -20.10150701143982, -64.27149910734624 -20.392168661612473 M-64.27149910734624 -20.392168661612473 C-63.96855750038001 -20.503653973337567, -63.66561589341377 -20.61513928506266, -62.94800579651967 -20.879226434234706 M-64.27149910734624 -20.392168661612473 C-63.99850907705536 -20.492631516251695, -63.72551904676448 -20.593094370890917, -62.94800579651967 -20.879226434234706 M-62.94800579651967 -20.879226434234706 C-62.4835464979028 -21.017075516067585, -62.019087199285934 -21.15492459790046, -61.596025846009184 -21.28048698685864 M-62.94800579651967 -20.879226434234706 C-62.50106330980467 -21.01187661824273, -62.05412082308967 -21.14452680225076, -61.596025846009184 -21.28048698685864 M-61.596025846009184 -21.28048698685864 C-61.22909014329489 -21.36423766652394, -60.8621544405806 -21.44798834618924, -60.2211148314302 -21.594301453803435 M-61.596025846009184 -21.28048698685864 C-61.17778953490777 -21.37594669562055, -60.75955322380636 -21.471406404382453, -60.2211148314302 -21.594301453803435 M-60.2211148314302 -21.594301453803435 C-59.73056099384213 -21.673610393962846, -59.240007156254066 -21.752919334122257, -58.828922557059144 -21.819380304111412 M-60.2211148314302 -21.594301453803435 C-59.850837915135656 -21.654164954089566, -59.48056099884111 -21.714028454375693, -58.828922557059144 -21.819380304111412 M-58.828922557059144 -21.819380304111412 C-58.53418596615087 -21.847813188563723, -58.23944937524261 -21.87624607301603, -57.42516983957569 -21.9547986405074 M-58.828922557059144 -21.819380304111412 C-58.31169415187963 -21.869276706300912, -57.79446574670011 -21.919173108490412, -57.42516983957569 -21.9547986405074 M-57.42516983957569 -21.9547986405074 C-57.07128957472287 -21.96614689181508, -56.71740930987004 -21.97749514312276, -56.01562500000001 -22 M-57.42516983957569 -21.9547986405074 C-57.04156457674119 -21.967100114644154, -56.65795931390669 -21.979401588780906, -56.01562500000001 -22 M-56.01562500000001 -22 C-56.01562500000001 -22, -56.01562500000001 -22, -56.015625 -22 M-56.01562500000001 -22 C-56.01562500000001 -22, -56.01562500000001 -22, -56.015625 -22" stroke="#9370DB" stroke-width="1.3" fill="none" stroke-dasharray="0 0" style=""/></g><g class="label" style="" transform="translate(-62.515625, -12)"><rect/><foreignObject width="125.03125" height="24"><div xmlns="http://www.w3.org/1999/xhtml" style="display: table-cell; white-space: nowrap; line-height: 1.5; max-width: 200px; text-align: center;"><span class="nodeLabel"><p>User opens app</p></span></div></foreignObject></g></g><g class="node default" id="my-svg-flowchart-Hyd-1" data-look="classic" transform="translate(443.7421875, 134)"><rect class="basic label-container" style="" x="-115.203125" y="-32" width="230.40625" height="64"/><g class="label" style="" transform="translate(-75.203125, -12)"><rect/><foreignObject width="150.40625" height="24"><div xmlns="http://www.w3.org/1999/xhtml" style="display: table-cell; white-space: nowrap; line-height: 1.5; max-width: 200px; text-align: center;"><span class="nodeLabel"><p>Auth store hydrate</p></span></div></foreignObject></g></g><g class="node default" id="my-svg-flowchart-Tok-3" data-look="classic" transform="translate(443.7421875, 323.1640625)"><polygon points="107.1640625,0 214.328125,-107.1640625 107.1640625,-214.328125 0,-107.1640625" class="label-container" transform="translate(-106.6640625, 107.1640625)"/><g class="label" style="" transform="translate(-63.1640625, -24)"><rect/><foreignObject width="126.328125" height="48"><div xmlns="http://www.w3.org/1999/xhtml" style="display: table-cell; white-space: nowrap; line-height: 1.5; max-width: 200px; text-align: center;"><span class="nodeLabel"><p>access_token in<br />localStorage?</p></span></div></foreignObject></g></g><g class="node default" id="my-svg-flowchart-Me-5" data-look="classic" transform="translate(371.30859375, 536.328125)"><rect class="basic label-container" style="" x="-109.8671875" y="-32" width="219.734375" height="64"/><g class="label" style="" transform="translate(-69.8671875, -12)"><rect/><foreignObject width="139.734375" height="24"><div xmlns="http://www.w3.org/1999/xhtml" style="display: table-cell; white-space: nowrap; line-height: 1.5; max-width: 200px; text-align: center;"><span class="nodeLabel"><p>GET /api/auth/me</p></span></div></foreignObject></g></g><g class="node default" id="my-svg-flowchart-MeOk-7" data-look="classic" transform="translate(299.75, 669.84375)"><polygon points="51.515625,0 103.03125,-51.515625 51.515625,-103.03125 0,-51.515625" class="label-container" transform="translate(-51.015625, 51.515625)"/><g class="label" style="" transform="translate(-19.515625, -12)"><rect/><foreignObject width="39.03125" height="24"><div xmlns="http://www.w3.org/1999/xhtml" style="display: table-cell; white-space: nowrap; line-height: 1.5; max-width: 200px; text-align: center;"><span class="nodeLabel"><p>200?</p></span></div></foreignObject></g></g><g class="node default" id="my-svg-flowchart-Auth-9" data-look="classic" transform="translate(125.06640625, 2541.75)"><rect class="basic label-container" style="" x="-104.0859375" y="-32" width="208.171875" height="64"/><g class="label" style="" transform="translate(-64.0859375, -12)"><rect/><foreignObject width="128.171875" height="24"><div xmlns="http://www.w3.org/1999/xhtml" style="display: table-cell; white-space: nowrap; line-height: 1.5; max-width: 200px; text-align: center;"><span class="nodeLabel"><p>render AppShell</p></span></div></foreignObject></g></g><g class="node default" id="my-svg-flowchart-Refresh-11" data-look="classic" transform="translate(474.43359375, 903.4765625)"><polygon points="108.1171875,0 216.234375,-108.1171875 108.1171875,-216.234375 0,-108.1171875" class="label-container" transform="translate(-107.6171875, 108.1171875)"/><g class="label" style="" transform="translate(-76.1171875, -12)"><rect/><foreignObject width="152.234375" height="24"><div xmlns="http://www.w3.org/1999/xhtml" style="display: table-cell; white-space: nowrap; line-height: 1.5; max-width: 200px; text-align: center;"><span class="nodeLabel"><p>401 + has refresh?</p></span></div></foreignObject></g></g><g class="node default" id="my-svg-flowchart-Rfr-13" data-look="classic" transform="translate(299.75, 1117.59375)"><rect class="basic label-container" style="" x="-130.2265625" y="-32" width="260.453125" height="64"/><g class="label" style="" transform="translate(-90.2265625, -12)"><rect/><foreignObject width="180.453125" height="24"><div xmlns="http://www.w3.org/1999/xhtml" style="display: table-cell; white-space: nowrap; line-height: 1.5; max-width: 200px; text-align: center;"><span class="nodeLabel"><p>POST /api/auth/refresh</p></span></div></foreignObject></g></g><g class="node default" id="my-svg-flowchart-RfrOk-15" data-look="classic" transform="translate(299.75, 1251.109375)"><polygon points="51.515625,0 103.03125,-51.515625 51.515625,-103.03125 0,-51.515625" class="label-container" transform="translate(-51.015625, 51.515625)"/><g class="label" style="" transform="translate(-19.515625, -12)"><rect/><foreignObject width="39.03125" height="24"><div xmlns="http://www.w3.org/1999/xhtml" style="display: table-cell; white-space: nowrap; line-height: 1.5; max-width: 200px; text-align: center;"><span class="nodeLabel"><p>200?</p></span></div></foreignObject></g></g><g class="node default" id="my-svg-flowchart-Store-17" data-look="classic" transform="translate(434.14453125, 1408.625)"><rect class="basic label-container" style="" x="-108.3984375" y="-32" width="216.796875" height="64"/><g class="label" style="" transform="translate(-68.3984375, -12)"><rect/><foreignObject width="136.796875" height="24"><div xmlns="http://www.w3.org/1999/xhtml" style="display: table-cell; white-space: nowrap; line-height: 1.5; max-width: 200px; text-align: center;"><span class="nodeLabel"><p>store new tokens</p></span></div></foreignObject></g></g><g class="node default" id="my-svg-flowchart-Clear-20" data-look="classic" transform="translate(186.92578125, 1408.625)"><rect class="basic label-container" style="" x="-88.8203125" y="-32" width="177.640625" height="64"/><g class="label" style="" transform="translate(-48.8203125, -12)"><rect/><foreignObject width="97.640625" height="24"><div xmlns="http://www.w3.org/1999/xhtml" style="display: table-cell; white-space: nowrap; line-height: 1.5; max-width: 200px; text-align: center;"><span class="nodeLabel"><p>clear tokens</p></span></div></foreignObject></g></g><g class="node default" id="my-svg-flowchart-Login-21" data-look="classic" transform="translate(599.5703125, 1522.625)"><rect class="basic label-container" style="" x="-109.890625" y="-32" width="219.78125" height="64"/><g class="label" style="" transform="translate(-69.890625, -12)"><rect/><foreignObject width="139.78125" height="24"><div xmlns="http://www.w3.org/1999/xhtml" style="display: table-cell; white-space: nowrap; line-height: 1.5; max-width: 200px; text-align: center;"><span class="nodeLabel"><p>render LoginPage</p></span></div></foreignObject></g></g><g class="node default" id="my-svg-flowchart-Mode-27" data-look="classic" transform="translate(599.5703125, 1659.3125)"><polygon points="54.6875,0 109.375,-54.6875 54.6875,-109.375 0,-54.6875" class="label-container" transform="translate(-54.1875, 54.6875)"/><g class="label" style="" transform="translate(-22.6875, -12)"><rect/><foreignObject width="45.375" height="24"><div xmlns="http://www.w3.org/1999/xhtml" style="display: table-cell; white-space: nowrap; line-height: 1.5; max-width: 200px; text-align: center;"><span class="nodeLabel"><p>mode</p></span></div></foreignObject></g></g><g class="node default" id="my-svg-flowchart-POSTLog-29" data-look="classic" transform="translate(526.2265625, 2289.75)"><rect class="basic label-container" style="" x="-121.5859375" y="-32" width="243.171875" height="64"/><g class="label" style="" transform="translate(-81.5859375, -12)"><rect/><foreignObject width="163.171875" height="24"><div xmlns="http://www.w3.org/1999/xhtml" style="display: table-cell; white-space: nowrap; line-height: 1.5; max-width: 200px; text-align: center;"><span class="nodeLabel"><p>POST /api/auth/login</p></span></div></foreignObject></g></g><g class="node default" id="my-svg-flowchart-POSTReg-31" data-look="classic" transform="translate(618.42578125, 1820)"><rect class="basic label-container" style="" x="-132.953125" y="-32" width="265.90625" height="64"/><g class="label" style="" transform="translate(-92.953125, -12)"><rect/><foreignObject width="185.90625" height="24"><div xmlns="http://www.w3.org/1999/xhtml" style="display: table-cell; white-space: nowrap; line-height: 1.5; max-width: 200px; text-align: center;"><span class="nodeLabel"><p>POST /api/auth/register</p></span></div></foreignObject></g></g><g class="node default" id="my-svg-flowchart-First-33" data-look="classic" transform="translate(618.42578125, 1973.875)"><polygon points="71.875,0 143.75,-71.875 71.875,-143.75 0,-71.875" class="label-container" transform="translate(-71.375, 71.875)"/><g class="label" style="" transform="translate(-39.875, -12)"><rect/><foreignObject width="79.75" height="24"><div xmlns="http://www.w3.org/1999/xhtml" style="display: table-cell; white-space: nowrap; line-height: 1.5; max-width: 200px; text-align: center;"><span class="nodeLabel"><p>first user?</p></span></div></foreignObject></g></g><g class="node default" id="my-svg-flowchart-Promote-35" data-look="classic" transform="translate(299.05859375, 2163.75)"><rect class="basic label-container" style="" x="-140" y="-44" width="280" height="88"/><g class="label" style="" transform="translate(-100, -24)"><rect/><foreignObject width="200" height="48"><div xmlns="http://www.w3.org/1999/xhtml" style="display: table; white-space: break-spaces; line-height: 1.5; max-width: 200px; text-align: center; width: 200px;"><span class="nodeLabel"><p>promote to global_admin</p></span></div></foreignObject></g></g><g class="node default" id="my-svg-flowchart-Reg-37" data-look="classic" transform="translate(753.0234375, 2163.75)"><rect class="basic label-container" style="" x="-88.59375" y="-32" width="177.1875" height="64"/><g class="label" style="" transform="translate(-48.59375, -12)"><rect/><foreignObject width="97.1875" height="24"><div xmlns="http://www.w3.org/1999/xhtml" style="display: table-cell; white-space: nowrap; line-height: 1.5; max-width: 200px; text-align: center;"><span class="nodeLabel"><p>regular user</p></span></div></foreignObject></g></g><g class="node default" id="my-svg-flowchart-Issue-43" data-look="classic" transform="translate(526.2265625, 2415.75)"><rect class="basic label-container" style="" x="-129.96875" y="-44" width="259.9375" height="88"/><g class="label" style="" transform="translate(-89.96875, -24)"><rect/><foreignObject width="179.9375" height="48"><div xmlns="http://www.w3.org/1999/xhtml" style="display: table-cell; white-space: nowrap; line-height: 1.5; max-width: 200px; text-align: center;"><span class="nodeLabel"><p>issue access + refresh<br />both with jti nonce</p></span></div></foreignObject></g></g></g></g></g><defs><filter id="my-svg-drop-shadow" height="130%" width="130%"><feDropShadow dx="4" dy="4" stdDeviation="0" flood-opacity="0.06" flood-color="#000000"/></filter></defs><defs><filter id="my-svg-drop-shadow-small" height="150%" width="150%"><feDropShadow dx="2" dy="2" stdDeviation="0" flood-opacity="0.06" flood-color="#000000"/></filter></defs></svg>